<svg width="540" height="520" fill="none" xmlns="http://www.w3.org/2000/svg"><path fill-rule="evenodd" clip-rule="evenodd" d="M37.125 228.57c144.934-63.092 241.599-104.773 289.995-124.917C465.213 46.262 493.845 36.253 512.595 36c4.054 0 13.303.887 19.257 5.701 5.068 4.18 6.335 9.629 7.095 13.556.633 3.8 1.52 12.67.76 19.51-7.475 78.549-39.781 269.472-56.251 357.522-6.968 37.247-20.777 49.789-33.953 50.93-28.885 2.66-50.803-19.004-78.802-37.374-43.835-28.632-68.413-46.496-110.981-74.494-49.156-32.433-17.23-50.17 10.642-79.182 7.348-7.602 134.546-123.397 137.08-133.912.253-1.267.633-6.208-2.281-8.869-2.913-2.534-7.221-1.647-10.388-.887-4.308 1.014-74.241 47.256-209.674 138.6-19.89 13.683-37.88 20.271-53.97 20.017-17.737-.506-51.943-10.135-77.281-18.37C22.682 278.613-2.022 273.292.13 256.062c1.14-8.868 13.43-18.117 36.994-27.492z" fill="#fff"/></svg>