<svg width="60" height="60" viewBox="0 0 60 60" fill="none" xmlns="http://www.w3.org/2000/svg">
<rect width="60" height="60" rx="30" fill="black"/>
<path d="M18.4992 38.2515L29.9995 49.7518L41.4998 38.2515C44.7199 35.0314 46.2724 30.7188 46.2724 26.5212C46.2724 17.436 38.6822 10.2483 29.9995 10.2483C21.3168 10.2483 13.7266 17.436 13.7266 26.5212C13.7266 30.7188 15.2791 35.0314 18.4992 38.2515ZM29.9995 14.6759C36.5547 14.6759 41.8448 20.3111 41.8448 26.5212C41.8448 29.5688 40.6373 32.6739 38.3372 35.0314L29.9995 43.4267L21.6618 35.0314C19.3617 32.6739 18.1542 29.5688 18.1542 26.5212C18.1542 20.3111 23.4443 14.6759 29.9995 14.6759ZM25.5719 26.4062C25.5719 28.8788 27.5269 30.8338 29.9995 30.8338C32.4721 30.8338 34.4846 28.8788 34.4846 26.4062C34.4846 23.9336 32.4721 21.9211 29.9995 21.9211C27.5269 21.9211 25.5719 23.9336 25.5719 26.4062Z" fill="#00B400"/>
</svg>
