<svg width="72" height="48" viewBox="0 0 72 48" fill="none" xmlns="http://www.w3.org/2000/svg">
<path d="M9.1765 0C4.10842 0 0 4.10842 0 9.17649V38.8233C0 43.891 4.10842 48 9.1765 48H42.5289C47.5968 48 51.7056 43.891 51.7056 38.8233V37.4171C51.7056 36.7804 52.4472 36.4317 52.9375 36.8381L63.6786 45.7403C66.6972 48.3468 71.392 46.2105 71.392 42.2315V6.1444C71.392 2.25035 66.8717 0.0854824 63.8201 2.51807L52.9146 10.8561C52.4194 11.2345 51.7058 10.8816 51.7058 10.2586V9.17649C51.7058 4.10842 47.597 0 42.5291 0H9.1765Z" fill="white"/>
<path fill-rule="evenodd" clip-rule="evenodd" d="M32.0671 12.6201C31.4989 13.1561 31.0804 13.9935 31.0804 15.2274C31.0804 15.7573 31.1983 16.2557 31.4091 16.703C31.8332 17.6029 31.4506 18.6781 30.5549 19.104C29.6591 19.5301 28.5891 19.1459 28.1649 18.2458C27.7203 17.3018 27.4902 16.271 27.4912 15.2274C27.4912 13.1052 28.2452 11.2795 29.6097 9.9916C30.9584 8.71876 32.7676 8.0984 34.6708 8.0984C35.9263 8.09637 37.1604 8.42327 38.2503 9.04656C39.3402 9.66984 40.2477 10.5678 40.8827 11.6509C41.3846 12.5095 41.0991 13.6144 40.2446 14.119C39.3902 14.6236 38.2904 14.3366 37.7882 13.478C37.171 12.4227 36.0113 11.7046 34.6708 11.7046C33.5342 11.7046 32.6508 12.0691 32.0671 12.6201Z" fill="#141D34"/>
</svg>
