<svg width="520" height="520" fill="none" xmlns="http://www.w3.org/2000/svg"><path fill-rule="evenodd" clip-rule="evenodd" d="M260 520c143.609 0 260-116.391 260-260C520 116.391 403.609 0 260 0 116.391 0 0 116.391 0 260c0 143.609 116.391 260 260 260zm39.914-348.156h84.906v19.703h-84.906v-19.703zm-67.844 79.32c6.602-3.351 11.578-7.109 14.93-11.172 5.992-7.211 9.039-16.859 9.039-28.742 0-11.578-2.945-21.531-8.938-29.859-9.953-13.508-26.812-20.516-50.679-20.821h-94.453v195.508h88.054c9.953 0 19.094-.914 27.625-2.64 8.43-1.727 15.844-5.079 22.039-9.852 5.586-4.164 10.157-9.242 13.813-15.336 5.789-9.242 8.734-19.601 8.734-31.18 0-11.273-2.539-20.82-7.617-28.64-5.078-7.821-12.594-13.61-22.547-17.266zm-48.648-56.57c9.344 0 17.062 1.015 23.054 3.047 7.008 2.945 10.461 8.937 10.461 18.078 0 8.226-2.64 13.914-7.921 17.164-5.282 3.25-12.188 4.875-20.719 4.875h-47.531v-43.164h42.656zm24.679 124.109c-4.671 2.336-11.273 3.453-19.804 3.453h-47.43v-52.101h48.141c8.429.101 14.929 1.219 19.5 3.351 8.328 3.758 12.492 10.766 12.492 20.922 0 11.985-4.266 20.11-12.899 24.375zm195.813-82.773c5.891 8.531 9.75 18.484 11.477 29.859 1.015 6.602 1.421 16.149 1.218 28.539h-105.32c.609 14.422 5.586 24.68 15.133 30.469 5.789 3.656 12.695 5.484 20.82 5.484 8.633 0 15.641-2.234 21.024-6.601 2.945-2.438 5.585-5.688 7.82-9.953h38.594c-1.016 8.531-5.688 17.265-14.016 26.101-13 14.117-31.18 21.125-54.438 21.125-19.195 0-36.156-5.89-50.882-17.773-14.727-11.883-22.039-31.18-22.039-57.891 0-24.984 6.601-44.18 19.906-57.586 13.305-13.304 30.469-20.008 51.695-20.008 12.594 0 23.969 2.235 34.024 6.805 10.054 4.57 18.382 11.68 24.984 21.43zm-81.555 11.273c-5.383 5.485-8.734 12.899-10.054 22.344l65.101.102c-.711-10.055-4.062-17.672-10.055-22.852-6.093-5.18-13.507-7.82-22.445-7.82-9.648 0-17.164 2.742-22.547 8.226z" fill="#fff"/></svg>