<svg width="510" height="520" fill="none" xmlns="http://www.w3.org/2000/svg"><path d="M421.734 123.89c0-16.951-13.737-30.636-30.624-30.636s-30.636 13.685-30.636 30.636c0 16.887 13.749 30.573 30.636 30.573s30.624-13.686 30.624-30.573z" fill="#fff"/><path d="M462.539 363.029c-1.134 24.865-5.293 38.375-8.746 47.347-4.637 11.897-10.169 20.403-19.142 29.325-8.872 8.923-17.379 14.443-29.275 19.029-8.973 3.505-22.533 7.675-47.397 8.86-26.88 1.185-34.845 1.437-103.011 1.437-68.102 0-76.13-.252-103.01-1.437-24.864-1.185-38.361-5.355-47.335-8.86-11.959-4.586-20.402-10.106-29.324-19.029-8.986-8.922-14.518-17.428-19.092-29.325-3.455-8.972-7.675-22.482-8.748-47.347-1.31-26.88-1.55-34.97-1.55-102.997 0-68.166.24-76.194 1.55-103.074 1.073-24.864 5.293-38.361 8.748-47.41 4.574-11.884 10.106-20.34 19.092-29.262 8.922-8.91 17.365-14.443 29.324-19.08 8.974-3.516 22.471-7.624 47.335-8.809 26.88-1.185 34.908-1.487 103.01-1.487 68.166 0 76.131.302 103.011 1.488 24.864 1.184 38.424 5.292 47.397 8.809 11.896 4.636 20.403 10.17 29.275 19.079 8.973 8.922 14.505 17.378 19.142 29.262 3.453 9.049 7.612 22.546 8.746 47.41 1.248 26.88 1.55 34.908 1.55 103.074 0 68.027-.302 76.117-1.55 102.997zm45.911-208.163c-1.248-27.171-5.533-45.734-11.897-61.902-6.477-16.774-15.161-30.989-29.376-45.204-14.151-14.152-28.367-22.836-45.141-29.388-16.231-6.302-34.732-10.638-61.915-11.821C332.938 5.239 324.255 5 254.968 5c-69.223 0-77.969.24-105.152 1.55-27.121 1.184-45.609 5.52-61.916 11.822-16.71 6.552-30.925 15.236-45.077 29.388-14.215 14.215-22.899 28.43-29.44 45.204-6.301 16.168-10.585 34.731-11.896 61.902C.302 182.049 0 190.745 0 260.032c0 69.224.302 77.906 1.486 105.089 1.311 27.121 5.596 45.671 11.897 61.915 6.541 16.711 15.225 30.99 29.44 45.141 14.152 14.152 28.367 22.899 45.077 29.44 16.307 6.3 34.795 10.586 61.916 11.833 27.183 1.247 35.929 1.55 105.152 1.55 69.287 0 77.97-.303 105.153-1.55 27.183-1.247 45.684-5.533 61.915-11.833 16.774-6.541 30.99-15.288 45.141-29.44 14.215-14.151 22.899-28.43 29.376-45.141 6.364-16.244 10.649-34.794 11.897-61.915 1.248-27.183 1.55-35.865 1.55-105.089 0-69.287-.302-77.983-1.55-105.166z" fill="#fff"/><path d="M254.968 344.959c-46.918 0-84.989-38.01-84.989-84.927 0-46.994 38.071-85.053 84.989-85.053 46.932 0 85.053 38.059 85.053 85.053 0 46.917-38.121 84.927-85.053 84.927zm0-215.952c-72.324 0-130.899 58.7-130.899 131.025 0 72.262 58.575 130.899 130.899 130.899s130.963-58.637 130.963-130.899c0-72.325-58.639-131.025-130.963-131.025z" fill="#fff"/></svg>