<svg viewBox="0 0 574.03 574.03" xmlns="http://www.w3.org/2000/svg"><path d="m53.45 401.27 265.44-265.44-81.13-81.13-184.31 184.3z" fill="#00b4ff"/><path d="m541.59 285.91c-109.96 0-199.09 89.09-199.09 199.09a198.41 198.41 0 0 0 16.86 80.3 284.55 284.55 0 0 0 77.5-31.85 115.41 115.41 0 0 1 104.73-163.83 116.78 116.78 0 0 1 20.44 1.8 297.35 297.35 0 0 0 12-82.88 201.36 201.36 0 0 0 -32.44-2.63z" fill="#00b400" fill-rule="evenodd"/><path d="m349 379.29c0-8.79-6.84-11.23-15.15-11.23h-12.07v22.47h12.09c8.31 0 15.13-2.94 15.13-11.24zm77.2 7.27h44.44v34.44c-6.25 11.65-20.4 20.72-41.63 20.72-12.49 0-22.48-3.33-27.88-7.48-20.06 12.18-55.06 9.65-67.45-24.13h-11.9v10h8.22v20h-45.8v-20h11.4v-52h-16.4v34.53c0 25.78-18.32 39.93-42 39.93-20.81 0-42-12.48-42-39.93v-34.58h-8.74v-20.38h46.54v20.38h-10v35.78c0 10.39 7.92 16.22 15.4 16.22s14.6-5.41 14.6-16.22v-35.78h-12.14v-20.38h98.25c24.63 0 37.05 13.43 37.05 30.52a31.59 31.59 0 0 1 -16.81 27.38c4.72 13.84 19.07 16.56 26 9.91-3.33-6.66-4.59-14.15-4.59-21.64 0-24.68 15.35-47.83 47-47.83 18.31 0 29.34 5.21 38.14 12.55v21.58h-23.31l-.1-9.63c-3.59-2.22-7.78-3.25-13.05-3.25-13.8 0-22.07 9.81-22.07 26.17 0 15 8.75 26.13 22.07 26.54 7.08 0 12.53-1.51 17.9-6.15v-7.71h-21.13v-19.56zm-263.2 24.76a9.33 9.33 0 0 0 -9.5-9.15h-12.56v17.89h12.06c6.26 0 10-4.58 10-8.74zm-22.07-27.46h7.07c5.83 0 8.75-3.74 8.75-7.9s-2.92-7.9-8.75-7.9h-7.08zm48.29 28.71c0 13.72-10 27.45-29.52 27.45h-55.4v-20.02h9.57v-52h-9.57v-20.32h48.9c18.86 0 28.11 12.06 28.11 25 0 5.82-2.08 11.64-7.08 17.05 10.84 4.95 15 13.69 15 22.84zm234.4-153.08h11.21v33.23l-37.09-52.79h-39.58v19.55h10.84v52h-10.84v20.38h47.84v-20.38h-10.76v-32l36.26 52.36h29.56v-72.35h10v-19.55h-47.44zm-40.68-128.13v30.17h19.6v-10.05h11.12v51.87h-9.53v20.11h46.61v-20.11h-10.06v-51.87h11.12v10.05h20.13v-30.17zm-196 170h-20.65v10.64h-25.43v-16.49h23.84v-20.11h-23.84v-15.35h25.43v10.59h20.71v-30.71h-82.69v20.12h10.06v51.87h-10.06v20.08h82.69zm45.53-19.36h12.41c8.31 0 15.12-3 15.12-11.28 0-8.8-6.84-11.24-15.15-11.24h-12.38zm7.91 49.92h-45.79v-20.43h10.83v-52h-10.83v-19.56h56.32c24.64 0 37.06 13.44 37.06 30.53a31.59 31.59 0 0 1 -16.66 27.3c1.66 10 10.34 13.73 21.09 13.73h17.2v-52h-14.6v-19.56h55.37v19.56h-14.55v52h14.57v20.38h-59.14c-26.81 0-39.52-10.4-45.75-30h-13v9.57h7.91v20.39zm92.7-155.52h16.42l-8.5-22.28zm-92.94 47.11h-45.55v-20.16h11.12v-51.87h-11.12v-20.12h46.61v20.12h-9v15.88h9.54c12.18 0 19.6-5.83 19.6-15.88h-7.95v-20.12h44v20.12h-11.16c0 13.76-9.54 25.4-19.07 30.7 2.64 14.29 10.84 21.17 28.84 20.12l20.13-50.82h-6.89v-20.12h51.91l27.55 72h9.53v20.11h-46.62v-20.12h7.39l-2.12-6.88h-30.7l-2.12 6.88h8.47v20.11h-18.3c-31.78 0-35.94 0-47.6-4.76-11.12-4.76-19.6-16.41-23.84-31.23h-10.59v15.88h7.94zm-53.19 0h-82.64v-20.16h10.06v-51.87h-10.06v-20.12h82.69v30.71h-20.71v-10.59h-25.43v15.35h23.84v20.11h-23.84v16.41h25.43v-10.58h20.71z" fill="#fff"/></svg>