<svg width="500" height="520" fill="none" xmlns="http://www.w3.org/2000/svg"><path fill-rule="evenodd" clip-rule="evenodd" d="M35.147 45.147C0 80.294 0 136.863 0 250v20c0 113.138 0 169.705 35.147 204.853C70.294 510 126.863 510 240 510h20c113.138 0 169.705 0 204.853-35.147C500 439.705 500 383.138 500 270v-20c0-113.137 0-169.706-35.147-204.853C429.705 10 373.138 10 260 10h-20C126.863 10 70.294 10 35.147 45.147zm49.23 116.937c2.708 130 67.707 208.125 181.666 208.125h6.459v-74.375c41.875 4.167 73.54 34.792 86.248 74.375h59.168c-16.25-59.166-58.961-91.875-85.627-104.375 26.666-15.416 64.166-52.916 73.125-103.75h-53.751c-11.667 41.25-46.246 78.75-79.163 82.292v-82.292H218.75v144.167c-33.333-8.333-75.416-48.75-77.291-144.167H84.376z" fill="#fff"/></svg>