<svg width="643" height="520" fill="none" xmlns="http://www.w3.org/2000/svg"><path fill-rule="evenodd" clip-rule="evenodd" d="M572.606 48.44c27.676 7.41 49.424 29.158 56.832 56.833C642.826 155.384 642.826 260 642.826 260s0 104.615-13.441 154.727c-7.408 27.675-29.156 49.424-56.832 56.832C522.442 484.999 321.413 485 321.413 485s-201.029-.001-251.14-13.441c-27.675-7.408-49.424-29.157-56.833-56.832C0 364.615 0 260 0 260s0-104.616 13.44-154.727c7.41-27.675 29.158-49.424 56.833-56.833C120.384 35 321.413 35 321.413 35s201.029 0 251.193 13.44zM424.176 260l-167.057 96.413V163.585l167.057 96.414z" fill="#fff"/></svg>