<svg width="520" height="520" fill="none" xmlns="http://www.w3.org/2000/svg"><path d="M206.96 318.24c-40.04-39.52-99.84-46.8-206.44-47.84C5.72 407.16 117 517.4 254.8 520c-1.56-104-8.84-162.24-47.84-201.76zm111.28 0c-39 39.52-46.28 97.76-47.84 201.24 135.2-5.2 243.88-113.88 249.08-249.08-103.48 1.56-161.72 8.84-201.24 47.84zm-111.8-111.8c40.04-39.52 46.8-99.32 48.36-206.44C115.44 3.12 3.12 115.44 0 254.8c107.12-1.56 166.92-8.32 206.44-48.36zm111.8 0C357.76 245.96 416 253.24 520 254.8 517.4 117 407.68 5.72 270.4.52c1.04 106.6 8.32 166.4 47.84 205.92z" fill="#fff"/></svg>