<svg width="100" height="100" viewBox="0 0 100 100" fill="none" xmlns="http://www.w3.org/2000/svg">
<path fill-rule="evenodd" clip-rule="evenodd" d="M59.1792 18.7999C66.824 18.7999 73.0224 24.9983 73.0224 32.6431C73.0224 40.2895 66.824 46.4879 59.1792 46.4879C51.5344 46.4879 45.336 40.2895 45.336 32.6431C45.336 24.9983 51.5344 18.7999 59.1792 18.7999ZM59.1488 25.7039C62.9792 25.7039 66.0848 28.8063 66.0848 32.6319C66.0848 36.4575 62.9792 39.5583 59.1488 39.5583C55.3168 39.5583 52.2112 36.4575 52.2112 32.6319C52.2112 28.8063 55.3168 25.7039 59.1488 25.7039ZM31.4816 30.0383C34.1632 30.0383 36.3376 32.2175 36.3376 34.9055C36.3376 37.5935 34.1632 39.7727 31.4816 39.7727C28.7984 39.7727 26.624 37.5935 26.624 34.9055C26.624 32.2175 28.7984 30.0383 31.4816 30.0383ZM73.6624 52.5727C77.2448 56.1535 79.2992 61.1135 79.2992 66.1791C79.2992 71.2447 77.2448 76.2047 73.6624 79.7855L68.7584 74.8815C71.0928 72.5471 72.3632 69.4815 72.3632 66.1791C72.3632 62.8783 71.0928 59.8111 68.7584 57.4767L73.6624 52.5727ZM56.8672 51.1487H33.7424C29.928 51.1487 26.8064 54.2703 26.8064 58.0863V74.2719C26.8064 78.0879 29.928 81.2095 33.7424 81.2095H56.8672C60.6816 81.2095 63.8032 78.0879 63.8032 74.2719V58.0863C63.8032 54.2703 60.6816 51.1487 56.8672 51.1487ZM31.4816 23.4015C37.8224 23.4015 42.9616 28.5503 42.9616 34.9055C42.9616 41.2591 37.8224 46.4095 31.4816 46.4095C25.1392 46.4095 20 41.2591 20 34.9055C20 28.5503 25.1392 23.4015 31.4816 23.4015Z" fill="white"/>
</svg>
