<svg width="64" height="64" viewBox="0 0 64 64" fill="none" xmlns="http://www.w3.org/2000/svg">
<rect width="64" height="64" rx="32" fill="black"/>
<path d="M20.7254 40.9773L32.2257 52.4776L43.726 40.9773C46.9461 37.7572 48.4986 33.4446 48.4986 29.247C48.4986 20.1617 40.9084 12.974 32.2257 12.974C23.543 12.974 15.9528 20.1617 15.9528 29.247C15.9528 33.4446 17.5053 37.7572 20.7254 40.9773ZM32.2257 17.4016C38.7809 17.4016 44.071 23.0368 44.071 29.247C44.071 32.2945 42.8635 35.3996 40.5634 37.7572L32.2257 46.1524L23.888 37.7572C21.5879 35.3996 20.3804 32.2945 20.3804 29.247C20.3804 23.0368 25.6705 17.4016 32.2257 17.4016ZM27.7981 29.132C27.7981 31.6045 29.7531 33.5596 32.2257 33.5596C34.6982 33.5596 36.7108 31.6045 36.7108 29.132C36.7108 26.6594 34.6982 24.6468 32.2257 24.6468C29.7531 24.6468 27.7981 26.6594 27.7981 29.132Z" fill="#00B400"/>
</svg>
