<svg width="22" height="21" viewBox="0 0 22 21" fill="none" xmlns="http://www.w3.org/2000/svg">
<path d="M1.08095 5.81591C0.890423 7.00715 1.0378 8.22848 1.50643 9.33957L1.50716 9.3413C1.93102 10.341 2.50161 11.2712 3.20001 12.1007C4.04891 13.1342 4.96731 14.1079 5.94873 15.0149C6.60281 15.6332 7.26546 16.2449 7.92265 16.8516C8.12321 17.0367 8.32326 17.2214 8.5224 17.4056L8.52307 17.4062C8.81578 17.6766 9.11412 17.9485 9.41139 18.2195C9.60137 18.3927 9.79092 18.5655 9.97828 18.7372L10.6397 19.3434L11.3094 18.7553C11.3104 18.7544 11.3119 18.7532 11.3137 18.7517L11.3139 18.7515C11.3185 18.7478 11.3304 18.7381 11.3438 18.7267C11.3551 18.7171 11.3697 18.7042 11.3864 18.6886C12.4284 17.7313 13.4696 16.7744 14.51 15.8178C15.6011 14.8312 16.6384 13.7861 17.6174 12.6869C18.3235 11.9056 18.9353 11.0432 19.4402 10.1177C20.1829 8.80515 20.4594 7.27777 20.2248 5.78666L1.08095 5.81591ZM1.08095 5.81591C1.30778 4.36315 2.08968 3.05541 3.26208 2.17258C4.06404 1.553 5.02024 1.16649 6.02652 1.05592C6.94595 0.94248 7.87895 1.04143 8.75453 1.34518C9.44963 1.58631 10.0938 1.95139 10.6569 2.42112C11.4992 1.72029 12.5163 1.25802 13.603 1.08776C14.4092 0.944162 15.2366 0.977088 16.029 1.18431C16.8227 1.39188 17.5621 1.76937 18.1968 2.2905C19.2854 3.15958 20.0086 4.40761 20.2247 5.78629L1.08095 5.81591Z" fill="#FF0000" stroke="#1E2841" stroke-width="2"/>
</svg>

