<svg width="36" height="36" viewBox="0 0 40 40" fill="none" xmlns="http://www.w3.org/2000/svg">
<circle cx="20" cy="20" r="20" fill="black"/>
<path d="M13.8289 39.0297C14.7387 39.1364 15.0834 38.5635 15.0834 38.0595C15.0834 37.8941 15.0804 37.5955 15.0765 37.2059C15.0691 36.4743 15.0584 35.4216 15.0584 34.3262C10.0222 35.2533 8.71932 33.0985 8.31843 31.971C8.09293 31.3947 7.11576 29.6157 6.26387 29.1397C5.56231 28.7638 4.56009 27.8368 6.23881 27.8117C7.81732 27.7867 8.94482 29.265 9.32065 29.8663C11.1247 32.898 14.0061 32.0461 15.1586 31.52C15.334 30.2171 15.8602 29.3401 16.4364 28.839C11.9765 28.3379 7.3162 26.6091 7.3162 18.942C7.3162 16.7622 8.09293 14.9582 9.37076 13.5551C9.17032 13.054 8.46876 10.9994 9.57121 8.2433C9.57121 8.2433 11.2499 7.71713 15.0834 10.2979C16.687 9.84686 18.3908 9.62136 20.0946 9.62136C21.7984 9.62136 23.5021 9.84686 25.1057 10.2979C28.9392 7.69208 30.6179 8.2433 30.6179 8.2433C31.7204 10.9994 31.0188 13.054 30.8184 13.5551C32.0962 14.9582 32.8729 16.7372 32.8729 18.942C32.8729 26.6341 28.1875 28.3379 23.7276 28.839C24.4542 29.4654 25.0806 30.6681 25.0806 32.5472C25.0806 34.3318 25.0695 35.8832 25.0621 36.9207C25.0584 37.4418 25.0556 37.8333 25.0556 38.0595C25.0556 38.5246 25.3493 39.0681 26.1099 39.0494C24.1839 39.6666 22.1309 39.9999 20 39.9999C17.8465 39.9999 15.7725 39.6595 13.8289 39.0297Z" fill="white"/>
</svg>
