<svg width="47" height="48" viewBox="0 0 47 48" fill="none" xmlns="http://www.w3.org/2000/svg">
<path d="M11.8641 32.4631L23.5002 44.0992L35.1363 32.4631C38.3944 29.205 39.9652 24.8415 39.9652 20.5943C39.9652 11.4018 32.2854 4.12927 23.5002 4.12927C14.715 4.12927 7.03516 11.4018 7.03516 20.5943C7.03516 24.8415 8.60603 29.205 11.8641 32.4631ZM23.5002 8.60916C30.1327 8.60916 35.4853 14.3108 35.4853 20.5943C35.4853 23.6779 34.2635 26.8196 31.9363 29.205L23.5002 37.6993L15.064 29.205C12.7368 26.8196 11.515 23.6779 11.515 20.5943C11.515 14.3108 16.8676 8.60916 23.5002 8.60916ZM19.0203 20.4779C19.0203 22.9797 20.9984 24.9578 23.5002 24.9578C26.0019 24.9578 28.0383 22.9797 28.0383 20.4779C28.0383 17.9762 26.0019 15.9399 23.5002 15.9399C20.9984 15.9399 19.0203 17.9762 19.0203 20.4779Z" fill="#00B400"/>
</svg>
