
<svg width="60" height="60" viewBox="0 0 60 60" fill="none" xmlns="http://www.w3.org/2000/svg">
<g clip-path="url(#clip0_6629_18108)">
<circle cx="44.9497" cy="45.9497" r="5.62131" transform="rotate(-45 44.9497 45.9497)" fill="#00B4FF"/>
<circle cx="6.5" cy="30.5" r="7.5" transform="rotate(90 6.5 30.5)" fill="#FFC800"/>
<circle cx="30" cy="10" r="5" fill="#FFC800"/>
<circle cx="17.6562" cy="57.6569" r="4" transform="rotate(45 17.6562 57.6569)" fill="#00B4FF"/>
<circle cx="20.6562" cy="1.65685" r="4" transform="rotate(45 20.6562 1.65685)" fill="#00B4FF"/>
<rect x="9" y="8" width="12" height="12" fill="#00B400"/>
<rect x="23" y="46" width="9" height="9" fill="#00B400"/>
<path d="M2.49951 49.9369L12.3188 50.8563L15.0743 44.2494L20.7959 44.9891L21.3276 41.4946L12.8507 40.3981L10.0964 47.0043L2.99692 46.0872L2.49951 49.9369Z" fill="#00B4FA"/>
<rect x="34" y="55.0706" width="8" height="8" transform="rotate(-15 34 55.0706)" fill="#FFC800"/>
<rect x="36" y="-0.929443" width="8" height="8" transform="rotate(-15 36 -0.929443)" fill="#00B4FF"/>
<circle cx="47.8984" cy="18.8996" r="7" transform="rotate(-135 47.8984 18.8996)" fill="#00B400"/>
<path d="M48 38.7991C50.6264 38.7991 53.2272 38.2818 55.6537 37.2767C58.0802 36.2716 60.285 34.7984 62.1421 32.9412C63.9993 31.084 65.4725 28.8793 66.4776 26.4527C67.4827 24.0262 68 21.4255 68 18.7991L59.9991 18.7991C59.9991 20.3748 59.6887 21.9351 59.0857 23.3909C58.4827 24.8467 57.5989 26.1695 56.4846 27.2837C55.3704 28.3979 54.0477 29.2818 52.5919 29.8848C51.1361 30.4878 49.5757 30.7982 48 30.7982L48 38.7991Z" fill="#FFC800"/>
</g>
<defs>
<clipPath id="clip0_6629_18108">
<rect width="60" height="60" fill="white"/>
</clipPath>
</defs>
</svg>
