<svg width="39" height="34" viewBox="0 0 39 34" fill="none" xmlns="http://www.w3.org/2000/svg">
    <path d="M8.74662 10.2816H0V8.15254H1.06501V2.66248H0V0.533447H8.74662V3.78306H6.56014V2.66248H3.86903V4.28728H6.39216V6.41631H3.86903V8.15325H6.56014V7.03267H8.74662V10.2816ZM14.3773 10.2816H9.55543V8.15254H10.7327V2.66248H9.55543V0.533447H14.4895V2.66248H13.5367V4.34299H14.5459C15.8354 4.34299 16.6202 3.72664 16.6202 2.66248H15.7789V0.533447H20.4328V2.66248H19.2548C19.2548 4.11944 18.2456 5.35145 17.2363 5.91209C17.5165 7.42476 18.3818 8.15325 20.2881 8.04112L22.4188 2.66318H21.6897V0.533447H27.1842L30.0997 8.15254H31.109V10.2816H26.1749V8.15254H26.9597L26.7353 7.42406H23.4831L23.2587 8.15254H24.1557V10.2816H22.2191C18.8547 10.2816 18.4143 10.2816 17.1806 9.77735C16.0033 9.27312 15.1063 8.04041 14.6574 6.47202H13.536V8.15254H14.3773V10.2816ZM24.2136 5.29503H25.9519L25.0549 2.94174L24.2136 5.29503ZM14.4027 21.7553H9.55543V19.5981H10.7016V14.0946H9.55543V12.0249H15.5171C18.1242 12.0249 19.439 13.4473 19.439 15.2554C19.439 16.3118 18.866 17.4846 17.676 18.1454C17.8518 19.2018 18.77 19.5988 19.9077 19.5988H21.7286V14.0946H20.1857V12.0249H26.0465V14.0946H24.5036V19.5981H26.0465V21.7553H19.7863C16.9484 21.7553 15.6039 20.6545 14.944 18.5847H13.5649V19.5974H14.402L14.4027 21.7553ZM13.5649 16.4719H14.8784C15.7577 16.4719 16.4819 16.1616 16.4819 15.2829C16.4819 14.352 15.7577 14.0939 14.8784 14.0939H13.5649V16.4719ZM8.74662 18.5241H6.56014V19.6447H3.86903V17.9077H6.39216V15.7787H3.86903V14.1539H6.56014V15.2745H8.74662V12.0249H0V14.1539H1.06501V19.6439H0V21.773H8.74662V18.5241ZM29.4913 0.533447V3.72664H31.5656V2.66248H32.7428V8.15254H31.7336V10.2816H36.6676V8.15254H35.6026V2.66248H36.7798V3.72664H38.9105V0.533447H29.4913ZM33.7965 14.0946H34.9829V17.6115L31.0574 12.0249H26.868V14.0939H28.017V19.5974H26.868V21.7546H31.9354V19.5974H30.7935V16.2124L34.6308 21.7546H37.7594V14.0946H38.8209V12.0256H33.7972L33.7965 14.0946ZM8.9887 30.2969C8.9887 31.7496 7.92722 33.203 5.86425 33.203H0V31.0895H1.01349V25.5861H0V23.4288H5.17542C7.17204 23.4288 8.15165 24.7052 8.15165 26.0705C8.15165 26.6869 7.93145 27.3032 7.40212 27.8759C8.54829 28.4041 8.9887 29.3286 8.9887 30.2969ZM3.8775 27.2588H4.62703C5.24388 27.2588 5.5523 26.8625 5.5523 26.4224C5.5523 25.9824 5.24388 25.5861 4.62703 25.5861H3.8775V27.2588ZM6.2129 30.165C6.2129 29.6805 5.81626 29.196 5.19941 29.196H3.8775V31.0895H5.15566C5.81626 31.0895 6.2129 30.605 6.2129 30.165ZM34.0725 27.5437H38.7757V31.1861C38.1144 32.4188 36.6168 33.3793 34.3696 33.3793C33.0477 33.3793 31.9905 33.0267 31.4181 32.5874C29.2951 33.8772 25.5905 33.6092 24.2792 30.0331H23.018V31.0895H23.8833V33.203H19.036V31.0895H20.2422V25.5861H18.5067V29.2405C18.5067 31.9696 16.568 33.4668 14.0561 33.4668C11.8534 33.4668 9.60625 32.1466 9.60625 29.2405V25.5861H8.68098V23.4288H13.6164V25.5861H12.5585V29.373C12.5585 30.4732 13.3962 31.0895 14.1888 31.0895C14.9821 31.0895 15.7309 30.5176 15.7309 29.373V25.5861H14.4528V23.4288H24.8516C27.4587 23.4288 28.7736 24.8505 28.7736 26.6594C28.7736 27.7207 28.1955 28.8991 26.9943 29.5578C27.494 31.0218 29.0128 31.3102 29.7426 30.6057C29.3904 29.9012 29.2577 29.1086 29.2577 28.3159C29.2577 25.7038 30.8824 23.2532 34.2362 23.2532C36.1736 23.2532 37.3416 23.8047 38.2725 24.5818V26.8653H35.8052L35.7946 25.847C35.4142 25.6114 34.9702 25.5028 34.4127 25.5028C32.9524 25.5028 32.0766 26.5409 32.0766 28.2729C32.0766 29.8575 33.0025 31.038 34.4127 31.0818C35.1622 31.0818 35.7388 30.9217 36.307 30.4301V29.6142H34.0711L34.0725 27.5437ZM25.9011 26.775C25.9011 25.8442 25.177 25.5861 24.2976 25.5861H23.0173V27.964H24.2976C25.177 27.964 25.9011 27.653 25.9011 26.775Z" fill="white"/>
</svg>
