<svg width="75" height="56" viewBox="0 0 75 56" fill="none" xmlns="http://www.w3.org/2000/svg">
<g clip-path="url(#clip0_9346_20744)">
<path d="M23.3883 18.5903H23.0395L22.0296 36.5745H24.4716L23.3883 18.5903ZM23.3883 18.5903H23.0395L22.0296 36.5745H24.4716L23.3883 18.5903ZM23.3883 18.5903H23.0395L22.0296 36.5745H24.4716L23.3883 18.5903ZM44.7234 18.0945C44.3922 18.0969 44.075 18.2289 43.8399 18.4623C43.6048 18.6957 43.4705 19.0118 43.4657 19.3431V42.2939C43.4403 42.6067 43.5401 42.9168 43.7433 43.1561C43.9464 43.3954 44.2362 43.5442 44.549 43.57H44.7234C45.037 43.5876 45.345 43.4809 45.5804 43.2729C45.8159 43.0649 45.9599 42.7726 45.9811 42.4591V19.3431C45.9811 19.0119 45.8496 18.6944 45.6154 18.4602C45.3813 18.2261 45.0637 18.0945 44.7326 18.0945H44.7234ZM44.7234 18.0945C44.3922 18.0969 44.075 18.2289 43.8399 18.4623C43.6048 18.6957 43.4705 19.0118 43.4657 19.3431V42.2939C43.4403 42.6067 43.5401 42.9168 43.7433 43.1561C43.9464 43.3954 44.2362 43.5442 44.549 43.57H44.7234C45.037 43.5876 45.345 43.4809 45.5804 43.2729C45.8159 43.0649 45.9599 42.7726 45.9811 42.4591V19.3431C45.9811 19.0119 45.8496 18.6944 45.6154 18.4602C45.3813 18.2261 45.0637 18.0945 44.7326 18.0945H44.7234ZM23.3883 18.5903H23.0395L22.0296 36.5745H24.4716L23.3883 18.5903ZM73.6231 0.468312C53.4264 1.38635 24.4808 3.26831 1.09848 7.00471L0.4375 7.10569L9.71881 23.0152V55.2657H74.1004V0.449951L73.6231 0.468312ZM25.1234 46.8198L24.7286 40.0723H21.7818L21.3778 46.8198H17.3844L19.8172 14.8447H26.7575L29.1168 46.8198H25.1234ZM38.3155 18.5903H35.5614V46.8198H31.467V18.5903H28.7129L28.41 14.8447H38.6001L38.3155 18.5903ZM50.0113 42.3214C50.0113 45.3693 47.909 47.3155 44.7601 47.3155C41.6113 47.3155 39.5182 45.3693 39.5182 42.3214V19.3706C39.5182 16.3227 41.6204 14.3765 44.7601 14.3765C47.8998 14.3765 50.0113 16.3227 50.0113 19.3706V42.3214ZM66.4808 46.8198H62.7352V35.8768L62.8637 26.3385H62.5608L60.3391 40.3201H58.8427L56.6395 26.3385H56.3457L56.4375 35.8768V46.8198H52.7011V14.8447H56.4375L59.5772 28.5326L62.726 14.8447H66.4716L66.4808 46.8198ZM44.7601 18.0945C44.4289 18.0969 44.1117 18.2289 43.8766 18.4623C43.6415 18.6957 43.5072 19.0118 43.5024 19.3431V42.2939C43.477 42.6067 43.5769 42.9168 43.78 43.1561C43.9831 43.3954 44.2729 43.5442 44.5857 43.57H44.7601C45.0738 43.5876 45.3817 43.4809 45.6172 43.2729C45.8526 43.0649 45.9966 42.7726 46.0178 42.4591V19.3431C46.0178 19.0119 45.8863 18.6944 45.6521 18.4602C45.418 18.2261 45.1004 18.0945 44.7693 18.0945H44.7601ZM23.0762 18.5903L22.0296 36.5745H24.4716L23.3883 18.5903H23.0762ZM23.425 18.5903H23.0762L22.0296 36.5745H24.4716L23.425 18.5903ZM23.425 18.5903H23.0762L22.0296 36.5745H24.4716L23.425 18.5903Z" fill="white"/>
<path d="M26.7212 14.8446H19.8176L17.3848 46.8197H21.3782L21.7821 40.0722H24.729L25.1238 46.8197H29.1172L26.7212 14.8446ZM22.03 36.5744L23.0766 18.5902H23.3887L24.4353 36.5744H22.03ZM38.3159 18.5902H35.5618V46.8197H31.4674V18.5902H28.7225L28.4195 14.8446H38.6097L38.3159 18.5902ZM44.7513 14.3489C41.6117 14.3489 39.5094 16.2951 39.5094 19.343V42.2938C39.5094 45.3417 41.6117 47.2879 44.7513 47.2879C47.891 47.2879 50.0117 45.3417 50.0117 42.2938V19.343C50.0117 16.2951 47.9002 14.3489 44.7513 14.3489ZM46.009 42.459C45.9878 42.7725 45.8438 43.0649 45.6084 43.2728C45.3729 43.4808 45.065 43.5875 44.7513 43.5699H44.6044C44.2935 43.5486 44.0034 43.4056 43.7972 43.1719C43.5909 42.9382 43.4852 42.6325 43.5028 42.3213V19.3705C43.5076 19.0393 43.6419 18.7231 43.877 18.4897C44.1121 18.2564 44.4293 18.1244 44.7605 18.122C45.0916 18.122 45.4092 18.2535 45.6433 18.4877C45.8775 18.7218 46.009 19.0394 46.009 19.3705V42.459ZM66.4812 46.8197H62.7356V35.8767L62.8366 26.3384H62.5336L60.3395 40.32H58.8431L56.6399 26.3384H56.3461L56.4471 35.8767V46.8197H52.7015V14.8446H56.4471L59.5867 28.5325L62.7356 14.8446H66.4812V46.8197Z" fill="#141D34"/>
</g>
<defs>
<clipPath id="clip0_9346_20744">
<rect width="74.3607" height="56" fill="white" transform="translate(0.4375)"/>
</clipPath>
</defs>
</svg>
