<svg width="78" height="72" viewBox="0 0 78 72" fill="none" xmlns="http://www.w3.org/2000/svg">
<g clip-path="url(#clip0_9346_20730)">
<path fill-rule="evenodd" clip-rule="evenodd" d="M42.2096 9.83006H41.7696L41.9796 9.46006C42.0222 9.3968 42.059 9.32987 42.0896 9.26006C41.7141 9.39102 41.3169 9.44873 40.9196 9.43006C40.3147 9.29986 39.6984 9.22952 39.0796 9.22006C38.5673 9.3096 38.0758 9.49265 37.6296 9.76006L37.4296 9.89006L37.2896 9.69006C37.2617 9.64879 37.2281 9.61175 37.1896 9.58006H36.8596L36.3996 9.72006L36.5496 9.26006V9.17006C36.2418 9.34975 35.9023 9.46858 35.5496 9.52006C34.9806 9.49152 34.4102 9.52842 33.8496 9.63006C33.5522 9.71805 33.2667 9.84232 32.9996 10.0001L32.8596 10.0901L32.6796 10.0001L32.5796 9.95006H32.0796V9.56006C31.8314 9.76068 31.5459 9.91022 31.2396 10.0001C30.733 10.059 30.2337 10.1695 29.7496 10.3301C29.5487 10.4462 29.361 10.5836 29.1896 10.7401L29.0896 10.8301H28.6296L28.2796 10.9801V10.5401C28.0886 10.7515 27.8618 10.9275 27.6096 11.0601C27.3824 11.168 27.1486 11.2615 26.9096 11.3401C26.6041 11.4506 26.3273 11.6283 26.0996 11.8601L25.9996 12.0001H25.4996L25.3996 11.8801V12.1301C25.2919 12.374 25.1578 12.6054 24.9996 12.8201C24.9209 12.9478 24.8792 13.095 24.8792 13.2451C24.8792 13.3951 24.9209 13.5423 24.9996 13.6701C25.0586 13.7766 25.1366 13.8715 25.2296 13.9501L25.4096 14.0801L25.2896 14.2801V14.3501L25.4496 14.5601L25.2396 14.7101C25.1807 14.7376 25.1286 14.7779 25.0871 14.8281C25.0455 14.8782 25.0157 14.937 24.9996 15.0001C25.0036 15.1247 25.0522 15.2438 25.1367 15.3356C25.2211 15.4274 25.3357 15.4857 25.4596 15.5001H25.5196C25.597 15.5002 25.673 15.4795 25.7396 15.4401L25.8696 15.3701L25.9896 15.4601C26.0313 15.4901 26.0791 15.5106 26.1296 15.5201C26.3696 15.5901 27.1996 14.6001 27.4196 14.3201L27.5996 14.4201C28.0609 14.6404 28.5853 14.69 29.0796 14.5601C29.764 14.4492 30.4179 14.1972 30.9996 13.8201L31.1396 13.7001L31.2996 13.5601L31.4596 13.7001C31.8651 14.02 32.374 14.1802 32.8896 14.1501C33.572 14.1673 34.2513 14.0519 34.8896 13.8101L35.2196 13.6101L35.3496 13.5301L35.5096 13.6201C35.9483 13.8332 36.4322 13.9361 36.9196 13.9201C37.7526 13.941 38.5816 13.7983 39.3596 13.5001L39.7496 13.2701L39.9096 13.1701L40.0596 13.3001C40.4948 13.6589 41.028 13.8784 41.5896 13.9301C42.3909 14.0537 43.2083 14.0266 43.9996 13.8501C44.1967 13.7798 44.3874 13.6928 44.5696 13.5901L44.7596 13.4901L44.8796 13.6701C45.0649 13.9649 45.3193 14.2101 45.6207 14.3844C45.9222 14.5586 46.2617 14.6567 46.6096 14.6701C47.3125 14.7704 48.0279 14.7398 48.7196 14.5801H48.8396L49.0596 14.4901L49.1596 14.7001C49.308 14.9789 49.5483 15.198 49.8396 15.3201C50.3556 15.5905 50.9272 15.7377 51.5096 15.7501C51.7194 15.7337 51.9271 15.6969 52.1296 15.6401C51.9775 15.5263 51.8457 15.3877 51.7396 15.2301L51.5096 14.8801H51.9296C52.008 14.8706 52.0831 14.8432 52.149 14.7998C52.215 14.7564 52.27 14.6983 52.3096 14.6301C52.3197 14.5975 52.3197 14.5626 52.3096 14.5301V14.4201C52.3134 14.3279 52.2922 14.2365 52.2482 14.1555C52.2041 14.0745 52.139 14.007 52.0596 13.9601L51.7296 13.7801L52.0296 13.5501C52.1396 13.4501 52.2496 13.3501 52.3396 13.2501H51.9996L51.5796 13.1901L51.8396 12.8601C51.9004 12.7818 51.9384 12.6884 51.9496 12.5901C51.9534 12.4979 51.9322 12.4065 51.8882 12.3255C51.8441 12.2445 51.779 12.177 51.6996 12.1301H51.3096C50.9743 12.1691 50.6345 12.1419 50.3096 12.0501C49.8719 11.8226 49.4086 11.6481 48.9296 11.5301C48.7073 11.5001 48.482 11.5001 48.2596 11.5301H47.9996V11.3401C47.9588 11.2278 47.8813 11.1327 47.7796 11.0701C47.7155 11.0319 47.6438 11.008 47.5696 11.0001H46.9996L47.1796 10.6901C46.8087 10.75 46.4306 10.75 46.0596 10.6901C45.5132 10.4633 44.9429 10.2989 44.3596 10.2001C43.8616 10.1918 43.3665 10.2766 42.8996 10.4501L42.7096 10.5301L42.5996 10.3501C42.55 10.2805 42.4892 10.2197 42.4196 10.1701C42.359 10.1321 42.2907 10.1082 42.2196 10.1001L42.2096 9.83006ZM46.7596 43.3201H45.7596C45.283 43.3281 44.8223 43.1478 44.4778 42.8183C44.1333 42.4888 43.9327 42.0366 43.9196 41.5601C43.9209 41.3706 43.9478 41.1823 43.9996 41.0001C44.0627 41.1625 44.1504 41.3143 44.2596 41.4501C44.4396 41.7101 44.8096 42.1001 44.7896 42.4501C44.8991 42.1842 44.8991 41.8859 44.7896 41.6201C44.6929 41.4347 44.5719 41.2632 44.4296 41.1101C44.3507 41.0019 44.3001 40.8756 44.2827 40.7428C44.2652 40.61 44.2814 40.475 44.3296 40.3501C44.4396 40.5101 44.6696 40.8701 44.8496 40.8501C44.9796 40.4601 44.5496 40.1501 44.5896 39.7001C44.8696 40.0401 45.1496 40.1001 45.2296 40.4301C45.2709 40.3157 45.2834 40.1929 45.266 40.0725C45.2485 39.9522 45.2017 39.838 45.1296 39.7401C44.8917 39.3648 44.7796 38.9234 44.8096 38.4801C44.9296 38.6901 45.3096 38.9901 45.3096 39.1601C45.3996 38.8601 44.9196 38.0001 45.1896 37.5301C45.2375 37.8822 45.353 38.2217 45.5296 38.5301C45.6845 38.7112 45.7696 38.9417 45.7696 39.1801C45.8996 38.9601 45.7696 38.4601 45.8896 38.1801C45.9195 38.5333 46.0289 38.8751 46.2096 39.1801C46.3099 39.5059 46.3099 39.8543 46.2096 40.1801C46.6296 39.9301 46.4296 39.0601 46.7196 38.6501C46.7196 39.2601 47.0096 40.3801 46.5496 41.0701C46.3195 41.356 46.1802 41.7043 46.1496 42.0701C46.2422 41.7366 46.4098 41.4288 46.6396 41.1701C46.843 40.9956 46.9979 40.7718 47.0896 40.5201C47.1884 41.0298 47.0921 41.558 46.8196 42.0001C46.7256 42.225 46.6771 42.4663 46.6771 42.7101C46.6771 42.9538 46.7256 43.1952 46.8196 43.4201L46.7596 43.3201ZM40.9296 41.8601H42.7496V43.4001H42.4796V43.8101H40.8596V43.6501H40.9296V41.8601ZM47.9896 41.8601H49.8096V43.4401H50.6096V43.8101H48.2596V43.4001H47.9996V41.8601H47.9896ZM42.7496 41.5401H40.9296V38.0001H42.8596C42.7882 38.2403 42.7511 38.4894 42.7496 38.7401V41.5401ZM49.8096 38.0001V41.5701H47.9996V38.7601C47.9981 38.5094 47.9611 38.2603 47.8896 38.0201L49.8096 38.0001ZM43.3196 32.0001V29.0001H42.6896V26.4501H49.4596V29.0001H49.1596V32.0001L53.8496 37.5801V43.2401H53.9996V44.4801H48.6896V44.7001H42.0496V44.4801H40.3096V43.2101H40.3796V37.6301L43.3196 32.0001ZM43.6296 32.0801V28.6601H42.9996V26.7601H49.1296V28.6601H48.8296V32.0901L53.5196 37.6701V43.5301H53.6596V44.1401H48.3596V44.3601H42.3596V44.1401H40.6296V43.5301H40.6996V37.7101L43.6396 32.1201L43.6296 32.0801ZM26.5796 39.2301H32.8796V38.0801H31.4896V33.0001C31.4896 32.8501 31.3896 32.7201 31.2796 32.7201C31.1596 32.7201 31.0696 32.8501 31.0696 33.0001V38.1101H26.5796V39.2301ZM26.5796 43.3101H32.8796V42.2401H26.5796V43.3101ZM26.5796 41.8901H32.8796V40.8901H26.5796V41.8901ZM26.5796 40.6001H32.8796V39.5501H26.5796V40.6001ZM24.8796 43.5501C24.6993 43.5501 24.5263 43.4784 24.3988 43.3509C24.2713 43.2234 24.1996 43.0504 24.1996 42.8701C24.1996 42.6897 24.2713 42.5168 24.3988 42.3892C24.5263 42.2617 24.6993 42.1901 24.8796 42.1901C25.06 42.1901 25.2329 42.1184 25.3605 41.9909C25.488 41.8634 25.5596 41.6904 25.5596 41.5101C25.5596 41.3297 25.488 41.1568 25.3605 41.0292C25.2329 40.9017 25.06 40.8301 24.8796 40.8301C24.702 40.8559 24.5214 40.8105 24.3772 40.7037C24.233 40.5969 24.1368 40.4374 24.1096 40.2601C24.0836 40.0813 24.1288 39.8995 24.2353 39.7537C24.3419 39.6078 24.5014 39.5096 24.6796 39.4801H24.8796C25.0141 39.4801 25.1456 39.4402 25.2574 39.3655C25.3692 39.2907 25.4564 39.1845 25.5079 39.0603C25.5593 38.936 25.5728 38.7993 25.5466 38.6674C25.5203 38.5355 25.4556 38.4143 25.3605 38.3192C25.2654 38.2241 25.1442 38.1594 25.0123 38.1331C24.8804 38.1069 24.7437 38.1204 24.6194 38.1718C24.4952 38.2233 24.3889 38.3104 24.3142 38.4223C24.2395 38.5341 24.1996 38.6656 24.1996 38.8001C24.2047 38.9788 24.2779 39.1489 24.4044 39.2753C24.5308 39.4018 24.7009 39.475 24.8796 39.4801C24.9686 39.4625 25.0602 39.463 25.149 39.4814C25.2378 39.4998 25.322 39.5358 25.3967 39.5873C25.4714 39.6387 25.5351 39.7046 25.5839 39.781C25.6328 39.8574 25.6658 39.9428 25.6812 40.0322C25.6965 40.1216 25.6938 40.2132 25.6733 40.3015C25.6527 40.3898 25.6146 40.4731 25.5614 40.5466C25.5081 40.62 25.4407 40.682 25.3631 40.729C25.2856 40.7759 25.1994 40.8069 25.1096 40.8201H24.9996C24.9468 40.8301 24.8925 40.8301 24.8396 40.8201C24.6593 40.8201 24.4863 40.8917 24.3588 41.0192C24.2313 41.1468 24.1596 41.3197 24.1596 41.5001C24.1596 41.6804 24.2313 41.8534 24.3588 41.9809C24.4863 42.1084 24.6593 42.1801 24.8396 42.1801C25.02 42.1801 25.1929 42.2517 25.3205 42.3792C25.448 42.5068 25.5196 42.6797 25.5196 42.8601C25.5196 43.0404 25.448 43.2134 25.3205 43.3409C25.1929 43.4684 25.02 43.5401 24.8396 43.5401H25.5896V35.5401H24.5896V34.5401H23.2896V33.1401H22.5196V32.5201H23.9096V34.0001H24.6996V33.1601H25.6996V31.8701H26.4696V43.5101H32.9996V35.5601H31.6696V33.1401H32.9996V31.8701H33.7796V38.7601C33.7783 38.848 33.7943 38.9354 33.8268 39.0172C33.8592 39.099 33.9075 39.1736 33.9688 39.2368C34.0301 39.2999 34.1032 39.3504 34.184 39.3853C34.2648 39.4201 34.3516 39.4388 34.4396 39.4401C34.6172 39.4142 34.7978 39.4597 34.9421 39.5664C35.0863 39.6732 35.1825 39.8327 35.2096 40.0101C35.2356 40.1888 35.1905 40.3706 35.0839 40.5165C34.9773 40.6623 34.8178 40.7605 34.6396 40.7901H34.4396C34.3516 40.7887 34.2643 40.8048 34.1825 40.8372C34.1007 40.8697 34.0261 40.9179 33.9629 40.9792C33.8998 41.0405 33.8493 41.1136 33.8144 41.1944C33.7796 41.2752 33.7609 41.3621 33.7596 41.4501V42.8101C33.7583 42.7221 33.7743 42.6347 33.8068 42.5529C33.8392 42.4711 33.8875 42.3965 33.9488 42.3333C34.0101 42.2702 34.0832 42.2197 34.164 42.1849C34.2448 42.15 34.3316 42.1314 34.4196 42.1301C34.6 42.1301 34.7729 42.0584 34.9005 41.9309C35.028 41.8034 35.0996 41.6304 35.0996 41.4501C35.0996 41.2697 35.028 41.0967 34.9005 40.9692C34.7729 40.8417 34.6 40.7701 34.4196 40.7701C34.3316 40.7714 34.2443 40.7554 34.1625 40.7229C34.0807 40.6905 34.0061 40.6422 33.9429 40.5809C33.8798 40.5196 33.8293 40.4465 33.7944 40.3657C33.7596 40.2849 33.7409 40.1981 33.7396 40.1101V41.4601C33.7383 41.548 33.7543 41.6354 33.7868 41.7172C33.8192 41.799 33.8675 41.8736 33.9288 41.9368C33.9901 41.9999 34.0632 42.0504 34.144 42.0853C34.2248 42.1201 34.3116 42.1388 34.3996 42.1401C34.5784 42.1451 34.7484 42.2184 34.8749 42.3448C35.0013 42.4713 35.0746 42.6413 35.0796 42.8201C35.081 42.9081 35.0649 42.9954 35.0325 43.0772C35 43.159 34.9518 43.2336 34.8905 43.2968C34.8292 43.3599 34.7561 43.4104 34.6753 43.4453C34.5945 43.4801 34.5076 43.4988 34.4196 43.5001H37.0996V43.8601H24.9296L24.8796 43.5501ZM33.7196 40.1601C33.7183 40.0721 33.7343 39.9847 33.7668 39.9029C33.7992 39.8211 33.8475 39.7465 33.9088 39.6833C33.9701 39.6202 34.0432 39.5697 34.124 39.5349C34.2048 39.5 34.2916 39.4814 34.3796 39.4801C34.5133 39.48 34.6439 39.4406 34.7553 39.3667C34.8666 39.2928 34.9537 39.1878 35.0057 39.0647C35.0577 38.9416 35.0723 38.8059 35.0477 38.6746C35.023 38.5433 34.9602 38.4221 34.8671 38.3262C34.774 38.2304 34.6547 38.1641 34.5241 38.1357C34.3936 38.1072 34.2575 38.1178 34.133 38.1663C34.0084 38.2147 33.9009 38.2987 33.8238 38.4079C33.7468 38.517 33.7036 38.6465 33.6996 38.7801V40.1601H33.7196ZM34.3996 43.5501C34.3116 43.5514 34.2243 43.5354 34.1425 43.5029C34.0607 43.4705 33.9861 43.4222 33.9229 43.3609C33.8598 43.2996 33.8093 43.2265 33.7744 43.1457C33.7396 43.0649 33.7209 42.9781 33.7196 42.8901V43.5501H34.3996ZM28.7696 33.1401H27.6396C26.8296 33.1401 26.8296 35.5601 27.6396 35.5601H28.7696V33.1401ZM35.7696 35.5601H34.7696C33.9596 35.5601 33.9596 33.1401 34.7696 33.1401H35.7696L35.6996 33.2501C35.5886 33.4397 35.5204 33.6513 35.4996 33.8701V35.0001L35.5596 35.1301C35.5771 35.1671 35.6008 35.201 35.6296 35.2301L35.7696 35.5601ZM36.9996 34.7801H35.9996V34.1601H37.5896V35.6001H38.3596V36.2201H36.9996V34.7801ZM37.4896 43.0001H37.6596V44.4401H24.3896V44.0001C24.1023 43.8524 23.8846 43.5976 23.7835 43.2907C23.6825 42.9839 23.7062 42.6496 23.8496 42.3601L23.9296 42.2301C23.7933 42.0295 23.7205 41.7926 23.7205 41.5501C23.7205 41.3076 23.7933 41.0706 23.9296 40.8701C23.7933 40.6695 23.7205 40.4326 23.7205 40.1901C23.7205 39.9476 23.7933 39.7106 23.9296 39.5101C23.7921 39.3138 23.7187 39.0797 23.7196 38.8401C23.7195 38.5233 23.8425 38.2189 24.0627 37.9912C24.2829 37.7635 24.583 37.6304 24.8996 37.6201H25.1396V36.1101H24.1396V35.1101H22.7496V33.7001H21.9996V32.0001H24.4796V32.6001H25.1596V31.3301H28.8696V32.2101C28.9739 32.1655 29.0862 32.1425 29.1996 32.1425C29.3131 32.1425 29.4253 32.1655 29.5296 32.2101C29.6393 32.1588 29.7586 32.1315 29.8796 32.1301C30.0085 32.129 30.1356 32.16 30.2496 32.2201C30.3602 32.1661 30.4816 32.1381 30.6046 32.1381C30.7276 32.1381 30.8491 32.1661 30.9596 32.2201C31.1485 32.1384 31.3608 32.129 31.5562 32.1935C31.7516 32.258 31.9165 32.392 32.0196 32.5701H32.4696V31.3301H36.1796V32.5901H36.3696C36.5318 32.6161 36.6851 32.6818 36.816 32.7812C36.9468 32.8806 37.0511 33.0107 37.1196 33.1601V33.2801C37.1522 33.3614 37.179 33.4449 37.1996 33.5301H38.0596V35.0001H38.8396V36.7101H36.4096V36.0001H36.1496V37.4301H37.4796V43.0001H37.4896ZM37.1696 43.3101H37.3396V44.1201H24.7096V43.7401C24.5949 43.7121 24.4868 43.6615 24.3918 43.5913C24.2968 43.5211 24.2167 43.4327 24.1562 43.3313C24.0957 43.2298 24.056 43.1173 24.0394 43.0004C24.0229 42.8834 24.0297 42.7643 24.0596 42.6501C24.1108 42.4776 24.2075 42.3221 24.3396 42.2001C24.16 42.0405 24.0508 41.8163 24.0358 41.5765C24.0208 41.3368 24.1013 41.1008 24.2596 40.9201L24.3396 40.8401C24.1607 40.6822 24.0517 40.4598 24.0367 40.2216C24.0217 39.9835 24.1019 39.7491 24.2596 39.5701L24.3396 39.4801C24.1607 39.3222 24.0517 39.0998 24.0367 38.8616C24.0217 38.6235 24.1019 38.3891 24.2596 38.2101C24.3411 38.1142 24.4422 38.037 24.556 37.9835C24.6699 37.93 24.7939 37.9016 24.9196 37.9001H25.4596V35.7901H24.4596V34.7901H23.0596V33.3801H22.2896V32.3101H24.1396V33.7501H24.4796V32.9101H25.4796V31.6401H28.5496V32.9101H28.6796C28.6947 32.779 28.761 32.6592 28.864 32.5768C28.967 32.4944 29.0984 32.456 29.2296 32.4701C29.3398 32.4811 29.4425 32.5307 29.5196 32.6101C29.6114 32.5191 29.7354 32.468 29.8646 32.468C29.9939 32.468 30.1179 32.5191 30.2096 32.6101C30.3048 32.5178 30.4321 32.4662 30.5646 32.4662C30.6972 32.4662 30.8245 32.5178 30.9196 32.6101C30.9643 32.5655 31.0174 32.5302 31.0757 32.5062C31.134 32.4822 31.1965 32.4699 31.2596 32.4701C31.3798 32.4692 31.4962 32.5125 31.5865 32.5918C31.6769 32.671 31.7349 32.7808 31.7496 32.9001H32.7496V31.6501H35.8296V32.9101H36.2996C36.4107 32.934 36.5146 32.9835 36.6031 33.0547C36.6917 33.1259 36.7624 33.2168 36.8096 33.3201V33.4201C36.8694 33.5641 36.9097 33.7154 36.9296 33.8701H37.7296V35.3101H38.4996V36.3901H36.7296V35.4501C36.6697 35.5352 36.5904 35.605 36.4982 35.6537C36.4061 35.7024 36.3038 35.7285 36.1996 35.7301H35.8396V37.7901H37.1696V43.3101ZM28.6596 35.8201H28.5396V37.8801H30.7796V36.2001C30.6855 36.2413 30.5808 36.2519 30.4803 36.2304C30.3798 36.2089 30.2886 36.1563 30.2196 36.0801C30.1731 36.1269 30.1178 36.1641 30.0569 36.1895C29.996 36.2149 29.9306 36.228 29.8646 36.228C29.7986 36.228 29.7333 36.2149 29.6723 36.1895C29.6114 36.1641 29.5561 36.1269 29.5096 36.0801C29.4631 36.1269 29.4078 36.1641 29.3469 36.1895C29.286 36.2149 29.2206 36.228 29.1546 36.228C29.0886 36.228 29.0233 36.2149 28.9623 36.1895C28.9014 36.1641 28.8461 36.1269 28.7996 36.0801C28.7278 35.9977 28.6795 35.8975 28.6596 35.7901V35.8201ZM31.7796 37.8801H32.7796V35.7901H31.7796V37.8801ZM28.8496 36.5201V37.5201H30.4696V36.5201C30.38 36.5041 30.2927 36.4772 30.2096 36.4401C30.0996 36.4898 29.9803 36.5155 29.8596 36.5155C29.7389 36.5155 29.6196 36.4898 29.5096 36.4401C29.4053 36.4846 29.2931 36.5076 29.1796 36.5076C29.0662 36.5076 28.9539 36.4846 28.8496 36.4401V36.5201ZM32.0996 37.5201H32.4496V36.1101H32.0996V37.5201ZM29.0996 32.7001C29.1624 32.71 29.219 32.7434 29.258 32.7935C29.297 32.8437 29.3155 32.9068 29.3096 32.9701V35.7401C29.3155 35.8033 29.297 35.8664 29.258 35.9166C29.219 35.9667 29.1624 36.0002 29.0996 36.0101C29.0369 36.0002 28.9802 35.9667 28.9412 35.9166C28.9022 35.8664 28.8838 35.8033 28.8896 35.7401V33.0001C28.8838 32.9368 28.9022 32.8737 28.9412 32.8235C28.9802 32.7734 29.0369 32.74 29.0996 32.7301V32.7001ZM29.7596 32.7001C29.6969 32.71 29.6402 32.7434 29.6012 32.7935C29.5622 32.8437 29.5438 32.9068 29.5496 32.9701V35.7601C29.5438 35.8233 29.5622 35.8864 29.6012 35.9366C29.6402 35.9867 29.6969 36.0202 29.7596 36.0301C29.7912 36.0264 29.8218 36.0164 29.8495 36.0008C29.8773 35.9851 29.9016 35.9642 29.9212 35.939C29.9407 35.9139 29.9551 35.8851 29.9634 35.8544C29.9717 35.8237 29.9738 35.7916 29.9696 35.7601V33.0001C29.9738 32.9685 29.9717 32.9364 29.9634 32.9057C29.9551 32.875 29.9407 32.8462 29.9212 32.8211C29.9016 32.796 29.8773 32.775 29.8495 32.7593C29.8218 32.7437 29.7912 32.7338 29.7596 32.7301V32.7001ZM30.5596 32.7001C30.5912 32.7038 30.6218 32.7137 30.6495 32.7293C30.6773 32.745 30.7016 32.766 30.7212 32.7911C30.7407 32.8162 30.7551 32.845 30.7634 32.8757C30.7717 32.9064 30.7738 32.9385 30.7696 32.9701V35.7401C30.7738 35.7716 30.7717 35.8037 30.7634 35.8344C30.7551 35.8651 30.7407 35.8939 30.7212 35.919C30.7016 35.9442 30.6773 35.9651 30.6495 35.9808C30.6218 35.9964 30.5912 36.0064 30.5596 36.0101C30.4969 36.0002 30.4402 35.9667 30.4012 35.9166C30.3622 35.8664 30.3438 35.8033 30.3496 35.7401V33.0001C30.3438 32.9368 30.3622 32.8737 30.4012 32.8235C30.4402 32.7734 30.4969 32.74 30.5596 32.7301V32.7001ZM4.44963 24.4401L4.71963 24.1501V23.8801L4.99963 23.6501H4.09963C4.16196 23.7294 4.21876 23.8129 4.26963 23.9001V24.1601L4.44963 24.4701V24.4401ZM5.62963 24.4901L5.89963 24.2101V24.0001L6.14963 23.7901H5.28963C5.3405 23.8772 5.3973 23.9607 5.45963 24.0401V24.3001L5.62963 24.6101V24.4901ZM6.80963 24.5901L7.07963 24.3201C7.09009 24.2371 7.09009 24.1531 7.07963 24.0701L7.32963 23.8701L6.89963 23.8101H6.46963L6.63963 24.0601V24.3101C6.63963 24.4201 6.74963 24.5201 6.80963 24.6301V24.5901ZM7.99963 24.7601L8.26963 24.5101C8.26064 24.4236 8.27807 24.3364 8.31963 24.2601L8.55963 24.0701L8.11963 24.0001L7.69963 23.9301L7.85963 24.1901V24.4401L8.02963 24.7701L7.99963 24.7601ZM9.15963 25.0001L9.43963 24.7701V24.5201L9.68963 24.3401L9.25963 24.2301L8.83963 24.1301C8.83963 24.2201 8.93963 24.3101 8.99963 24.4001C9.05963 24.4901 8.99963 24.5701 8.99963 24.6501L9.16963 25.0001H9.15963ZM10.3296 25.3401L10.6096 25.1301V24.8701L10.8596 24.7201L10.4296 24.5701L9.99963 24.4501C10.0589 24.5433 10.1123 24.6402 10.1596 24.7401V25.0001L10.3296 25.3401ZM11.5296 25.7501L11.7696 25.5701C11.7608 25.4868 11.7783 25.4029 11.8196 25.3301L12.0696 25.1901L11.6496 24.9901L11.2196 24.8201C11.2796 24.9201 11.3296 25.0301 11.3796 25.1301C11.4296 25.2301 11.3796 25.2901 11.3796 25.3801L11.5196 25.7101L10.8396 25.4601L10.4596 25.3901C9.65372 25.1362 8.83193 24.9357 7.99963 24.7901C7.00745 24.6215 6.00531 24.518 4.99963 24.4801H3.80963L3.88963 23.9401C3.91184 23.7574 3.94862 23.5768 3.99963 23.4001C4.02881 23.44 4.05236 23.4837 4.06963 23.5301L4.33963 23.2301V23.0001L4.58963 22.7801H4.90963L4.99963 23.0001V23.2601L5.17963 23.5701L5.44963 23.2901V23.0001L5.69963 22.7901H5.99963L6.16963 23.0401V23.3001L6.33963 23.6101L6.61963 23.3401V23.0901L6.85963 22.8801H7.18963L7.35963 23.1401V23.3901C7.41028 23.4998 7.46704 23.6066 7.52963 23.7101L7.79963 23.4601V23.2101L8.04963 23.0101L8.37963 23.0701L8.53963 23.3401V23.5901L8.70963 23.9301L8.99963 23.6801C8.97487 23.5986 8.97487 23.5116 8.99963 23.4301L9.24963 23.2501L9.56963 23.3301L9.73963 23.6101V23.8701L9.90963 24.2201L10.1796 23.9901C10.1549 23.9086 10.1549 23.8216 10.1796 23.7401L10.4196 23.5801L10.7496 23.6801L10.8296 23.8301L10.9996 24.0001C10.9878 24.0843 10.9711 24.1678 10.9496 24.2501C11.0096 24.3701 11.0596 24.5001 11.1196 24.6201L11.3896 24.4201V24.1701L11.5096 24.1001L12.0296 24.3201L12.1196 24.4901C12.1442 24.5682 12.1442 24.6519 12.1196 24.7301C12.1604 24.8617 12.214 24.9889 12.2796 25.1101L12.4696 24.9901C12.4533 25.1671 12.4164 25.3416 12.3596 25.5101L12.2696 25.9701L11.5696 25.6901L11.5296 25.7501ZM12.3596 23.8701C12.6296 23.3101 12.7796 23.3601 13.2696 22.8001C13.4396 22.6101 13.0596 22.7001 12.6796 22.8001C12.2996 22.9001 11.9996 23.4401 11.6796 23.8701L12.2896 24.1301C12.3078 24.0288 12.3416 23.931 12.3896 23.8401L12.3596 23.8701ZM2.56963 51.3601C2.43323 51.8926 2.26629 52.4168 2.06963 52.9301C1.83963 53.5601 1.60963 54.1801 1.56963 54.3101C1.30475 54.8031 1.11275 55.3319 0.99963 55.8801C1.02838 56.533 0.960989 57.1867 0.79963 57.8201V57.4201C0.77008 56.9724 0.68956 56.5295 0.55963 56.1001C0.518779 55.4374 0.671663 54.7773 0.99963 54.2001L1.50963 52.7801C1.80889 51.778 1.87052 50.7201 1.68963 49.6901L0.68963 48.7601V46.1501C0.90963 46.7901 0.87963 48.1501 1.42963 48.6001C1.89963 50.0701 2.36963 48.2901 2.59963 51.3601H2.56963ZM10.6996 25.7601V26.3601L11.6996 26.7601C11.747 26.8599 11.8004 26.9568 11.8596 27.0501L11.9696 27.2101H12.1596C12.4596 27.2101 12.5196 28.0001 12.5396 28.2101C12.7195 29.7265 12.7596 31.2563 12.6596 32.7801L13.2296 33.7801C13.4996 31.893 13.4996 29.9771 13.2296 28.0901C13.1396 27.1901 12.9296 26.8001 12.5096 26.8501C12.4307 26.7389 12.3669 26.6179 12.3196 26.4901H12.2196C11.6996 26.2801 11.2196 26.0701 10.6396 25.8801L10.6996 25.7601ZM4.48963 22.4901C5.48081 20.4371 7.15211 18.7905 9.21963 17.8301C9.13757 17.7299 9.09273 17.6045 9.09273 17.4751C9.09273 17.3456 9.13757 17.2202 9.21963 17.1201C9.35801 16.9692 9.54621 16.8733 9.74963 16.8501C9.86246 16.8334 9.97765 16.8536 10.0781 16.9076C10.1785 16.9617 10.2589 17.0466 10.3072 17.15C10.3555 17.2533 10.3691 17.3694 10.3461 17.4811C10.3232 17.5929 10.2648 17.6942 10.1796 17.7701C10.6522 17.8803 11.1115 18.0413 11.5496 18.2501C11.9896 18.2501 12.1796 18.1201 12.3996 18.1901C12.7019 18.3234 12.9665 18.5295 13.1696 18.7901C13.2317 18.8706 13.3021 18.9443 13.3796 19.0101C14.3599 19.2893 15.2585 19.8003 15.9996 20.5001C15.9473 20.7718 15.8108 21.0201 15.6096 21.2101C15.5148 21.2724 15.4077 21.3137 15.2955 21.3309C15.1834 21.3482 15.0688 21.3411 14.9596 21.3101C14.8723 21.3221 14.7896 21.3566 14.7196 21.4101L14.9196 21.4901C15.0662 21.5554 15.2165 21.6122 15.3696 21.6601C15.4889 21.7002 15.6138 21.7204 15.7396 21.7201C15.8689 21.7401 16.0004 21.7401 16.1296 21.7201C16.295 21.68 16.4559 21.623 16.6096 21.5501L16.9196 21.4201L16.7296 21.6901C16.6201 21.8697 16.4693 22.0206 16.2896 22.1301C16.1304 22.2164 15.9506 22.2579 15.7696 22.2501C15.5403 22.2393 15.3141 22.192 15.0996 22.1101C14.7796 21.9901 14.4696 21.8601 14.1596 21.7101C14.0505 21.6565 13.9367 21.613 13.8196 21.5801H13.5096C13.4172 21.5822 13.3272 21.6099 13.2496 21.6601H13.1696L12.6396 21.5201H12.4296L12.6096 21.4001C12.7293 21.3406 12.8575 21.3001 12.9896 21.2801H13.2096V21.0001H12.9996L12.8196 21.2601H12.7496V21.0001C12.1732 20.822 11.552 20.8575 10.9996 21.1001C11.0696 21.1601 11.1196 21.2701 11.2096 21.2901L13.0696 21.8701C13.3497 21.931 13.6396 21.931 13.9196 21.8701H13.9996L13.8896 22.1201L13.6396 22.2101C13.2896 22.3501 12.8996 22.4101 12.5296 22.5301C11.9591 22.7205 11.4534 23.0669 11.0696 23.5301L10.9996 23.6001C10.1176 23.2633 9.20732 23.0056 8.27963 22.8301C7.00149 22.6204 5.71294 22.4802 4.41963 22.4101L4.48963 22.4901ZM14.3896 21.3101C14.3896 21.2301 14.3896 21.1701 14.3396 21.1601L13.9296 21.0501L13.8296 21.1901L14.1896 21.2601L14.3896 21.3101ZM13.6496 21.1601V21.0001H13.5096L13.3496 21.2001H13.6496V21.1601ZM12.4496 19.2601C12.1336 19.2092 11.8269 19.1114 11.5396 18.9701C11.5396 18.8001 11.8296 18.8501 11.9496 18.7501C12.1996 18.8201 12.5296 18.8501 12.6796 19.0401C12.8296 19.2301 12.5396 19.2001 12.4496 19.2601ZM9.60963 17.8801L9.96963 17.5401C10.004 17.5115 10.0297 17.4739 10.0438 17.4315C10.058 17.3891 10.06 17.3435 10.0496 17.3001C10.0496 17.1901 9.84963 17.1701 9.75963 17.1701C9.63367 17.1863 9.51894 17.2509 9.43963 17.3501C9.36963 17.4201 9.43963 17.6101 9.48963 17.6801L9.60963 17.8801ZM16.4396 26.6001C16.6808 26.3413 16.8648 26.0346 16.9796 25.7001L17.5796 24.0301C17.8296 23.4201 17.9596 22.7001 18.6896 22.3701L18.9896 22.2101V20.9401H25.7996V22.3701H31.2996V19.5501H31.4496L38.5796 17.2201H38.7096L45.8396 19.5501H45.9996V22.3701H51.4896V20.9401H58.2996V22.9401C58.5535 22.9885 58.7993 23.0727 59.0296 23.1901L60.6896 24.1901L61.5996 24.7601C62.0685 25.07 62.4478 25.4976 62.6996 26.0001C62.8186 26.2212 62.9093 26.4563 62.9696 26.7001C63.0095 27.0319 63.0296 27.3658 63.0296 27.7001C63.0496 27.9769 63.1583 28.2399 63.3396 28.4501C63.6004 28.7409 63.9122 28.9815 64.2596 29.1601C64.119 29.4018 64.0595 29.6821 64.0896 29.9601C64.139 30.2625 64.3022 30.5346 64.5458 30.7205C64.7894 30.9064 65.0949 30.9922 65.3996 30.9601C65.9872 30.846 66.5221 30.5447 66.9241 30.1012C67.3261 29.6577 67.5736 29.096 67.6296 28.5001L67.9096 25.6401C68.0181 24.8321 68.3013 24.0574 68.7396 23.3701L68.8596 23.1701C69.3396 23.1001 69.8596 23.0401 70.2996 23.0001C71.2996 22.9301 72.2996 22.9001 73.2396 22.9201C73.2314 23.4569 73.1779 23.9922 73.0796 24.5201L72.8496 24.8001C71.5194 26.4637 70.4598 28.3265 69.7096 30.3201C68.8096 32.8301 69.1896 36.9701 69.5996 39.6001C69.9393 41.3825 70.1499 43.1872 70.2296 45.0001C70.2794 45.5768 70.2009 46.1573 69.9996 46.7001C70.0597 46.3997 70.0597 46.0904 69.9996 45.7901L69.0596 38.1901C69.0016 37.4079 68.8367 36.6374 68.5696 35.9001C68.1613 35.1298 67.5353 34.4969 66.7696 34.0801L62.9996 31.5401C62.6437 31.2732 62.3502 30.9319 62.1396 30.5401L61.9296 30.4001C61.798 29.9769 61.7108 29.5413 61.6696 29.1001C61.6332 28.6479 61.4911 28.2106 61.2549 27.8233C61.0187 27.436 60.6949 27.1095 60.3096 26.8701L59.0496 26.0001L58.9096 25.8901C58.8315 25.8228 58.7681 25.7401 58.7233 25.6472C58.6786 25.5542 58.6535 25.4531 58.6496 25.3501L58.5596 24.8701L58.2996 24.6901V42.4101H56.8596V43.9101H58.2996V61.7101L61.1096 60.8401C61.6241 60.6761 62.1532 60.5623 62.6896 60.5001C63.241 60.4509 63.7965 60.5191 64.3196 60.7001C64.5308 60.7731 64.7297 60.8776 64.9096 61.0101C65.0616 61.1288 65.1905 61.2746 65.2896 61.4401C66.4776 61.3168 67.6543 61.1028 68.8096 60.8001L69.5796 60.6301C69.9063 60.5486 70.2442 60.5215 70.5796 60.5501C70.8686 60.5679 71.1478 60.661 71.3896 60.8201C71.569 60.9404 71.7278 61.089 71.8596 61.2601C71.9316 61.3506 71.9889 61.4518 72.0296 61.5601L72.2196 61.5001V61.3001C72.219 61.1401 72.2567 60.9824 72.3296 60.8401C72.484 60.5881 72.7207 60.3974 72.9996 60.3001C73.3201 60.1838 73.6588 60.1263 73.9996 60.1301C74.4802 60.1312 74.9535 60.2478 75.3796 60.4701C75.5987 60.5882 75.7978 60.74 75.9696 60.9201C76.1483 61.1183 76.251 61.3733 76.2596 61.6401V67.0001C76.2596 67.5301 76.2596 67.8701 75.7196 68.2301C75.1719 68.5283 74.5526 68.6702 73.9296 68.6401C73.3647 68.6532 72.8036 68.7372 72.2596 68.8901L71.7996 69.0001C71.0662 69.2784 70.3101 69.4925 69.5396 69.6401C69.2939 69.6701 69.0454 69.6701 68.7996 69.6401C68.5423 69.6192 68.2945 69.5332 68.0796 69.3901C67.9045 69.2631 67.7672 69.0908 67.6827 68.8917C67.5981 68.6926 67.5694 68.4743 67.5996 68.2601C67.2263 68.41 66.8418 68.5304 66.4496 68.6201C65.992 68.7216 65.5273 68.7885 65.0596 68.8201L62.0596 69.0701H61.7296C60.7296 69.1401 59.2896 69.0701 59.1996 67.8401V67.7001C58.5396 68.0201 57.8996 68.3701 57.2696 68.7001C56.6396 69.0301 55.8696 69.5501 55.1996 70.0001C54.4268 70.5391 53.5727 70.951 52.6696 71.2201C51.7669 71.4829 50.8297 71.6077 49.8896 71.5901H27.5396C25.6254 71.6265 23.7465 71.0712 22.1596 70.0001C21.4696 69.5301 20.7896 69.1001 20.0896 68.7001C19.4675 68.3273 18.8229 67.9934 18.1596 67.7001V67.8601C18.1395 68.1704 17.9997 68.4608 17.7696 68.6701C17.5111 68.9005 17.1848 69.0409 16.8396 69.0701C16.5767 69.0901 16.3126 69.0901 16.0496 69.0701H15.2696L12.2696 68.8201C11.7986 68.7885 11.3306 68.7216 10.8696 68.6201C10.4774 68.5304 10.0929 68.41 9.71963 68.2601C9.71963 68.7401 9.71963 69.1001 9.24963 69.4001C8.94775 69.5799 8.60089 69.6701 8.24963 69.6601C7.80802 69.6687 7.36824 69.601 6.94963 69.4601H6.99963L5.09963 68.8601C4.55684 68.7016 3.99504 68.6175 3.42963 68.6101C2.79352 68.6445 2.16025 68.5026 1.59963 68.2001C1.39227 68.0833 1.23024 67.9001 1.13963 67.6801C1.06326 67.462 1.03594 67.2299 1.05963 67.0001V61.5501C1.09899 61.3143 1.19765 61.0924 1.34634 60.9052C1.49503 60.718 1.68886 60.5717 1.90963 60.4801L2.13963 60.3701H1.99963C1.65834 60.3444 1.34036 60.1872 1.11275 59.9316C0.885142 59.676 0.765704 59.342 0.77963 59.0001V58.8401C0.860019 58.6143 0.926805 58.3839 0.97963 58.1501L1.29963 58.0001C1.42109 57.6214 1.48842 57.2275 1.49963 56.8301V56.0001C1.60006 55.4579 1.76804 54.9305 1.99963 54.4301C2.04564 54.2632 2.10242 54.0995 2.16963 53.9401C2.27963 53.6501 2.37963 53.3601 2.48963 53.0601C2.59963 52.7601 2.71963 52.4201 2.81963 52.0601C2.89935 51.8493 2.9596 51.6318 2.99963 51.4101C3.17111 50.3929 3.21812 49.3586 3.13963 48.3301V48.0001L2.81963 48.0801C2.51941 48.1902 2.18985 48.1902 1.88963 48.0801C1.44963 47.7501 1.29963 46.6201 1.10963 46.0801L0.83963 45.3301V43.0801C0.83963 41.9301 1.09963 39.9801 0.26963 39.1401C0.0363604 37.0215 -0.00714596 34.8863 0.13963 32.7601C0.15971 31.4859 0.420982 30.227 0.90963 29.0501C1.47179 28.1011 2.08953 27.1862 2.75963 26.3101C3.06624 25.8205 3.44367 25.379 3.87963 25.0001C3.86963 24.9137 3.86963 24.8264 3.87963 24.7401C5.25782 24.7114 6.63598 24.7984 7.99963 25.0001C8.82913 25.1507 9.64512 25.3681 10.4396 25.6501V26.0001C10.5196 26.7747 10.5196 27.5555 10.4396 28.3301L8.43963 27.9201L9.73963 28.7501C11.3696 29.7501 11.7396 31.0201 12.3696 32.7501C12.7717 33.9472 13.5285 34.9935 14.5396 35.7501C14.8196 35.4801 15.1396 35.1101 15.5396 34.7501C15.9396 34.3901 16.0396 34.3501 16.2596 34.1701C16.5272 33.9382 16.742 33.6518 16.8896 33.3301L17.6496 31.7301C17.9396 31.0801 18.1796 29.9701 19.0596 29.9501V25.8701C18.942 26.3599 18.7569 26.8311 18.5096 27.2701C18.2908 29.008 17.5277 30.6322 16.3296 31.9101C15.9439 32.3398 15.4697 32.681 14.9396 32.9101C14.5467 32.8619 14.1607 32.7679 13.7896 32.6301C13.8599 31.0835 13.7896 29.5339 13.5796 28.0001C13.5607 27.7464 13.5171 27.4953 13.4496 27.2501L13.5296 27.3401C13.7796 27.6301 13.9996 27.9001 14.2296 27.9001C14.6595 27.9216 15.0856 27.8098 15.4496 27.5801C15.8171 27.2827 16.1522 26.9475 16.4496 26.5801L16.4396 26.6001ZM18.9996 22.8501C18.7941 22.8936 18.6132 23.0143 18.4941 23.1874C18.375 23.3604 18.3269 23.5726 18.3596 23.7801C18.5571 23.5941 18.7714 23.4267 18.9996 23.2801V22.8501ZM18.9996 23.5001C18.7108 23.7372 18.4814 24.0386 18.3296 24.3801C18.4096 24.6201 18.7496 24.3801 18.9996 24.2701V23.5001ZM18.9996 24.5001L18.5096 25.1101H18.9996V24.5001ZM10.2496 50.0001C10.546 50.4575 10.8805 50.889 11.2496 51.2901C11.8903 51.8625 12.3112 52.6406 12.4396 53.4901C12.4417 54.0344 12.3676 54.5763 12.2196 55.1001C12.0139 55.7112 11.959 56.3631 12.0596 57.0001C12.1796 57.6501 12.6896 57.6101 13.1396 57.7001C13.6121 57.767 14.0646 57.9347 14.4666 58.1917C14.8686 58.4488 15.2107 58.7893 15.4696 59.1901C15.5595 59.546 15.5899 59.9142 15.5596 60.2801H15.4896C15.3796 60.0501 15.2196 59.5501 14.9596 59.5001C15.0807 59.743 15.1488 60.0088 15.1596 60.2801H15.0696C14.9253 59.9985 14.7163 59.7551 14.4596 59.5701C14.5456 59.7987 14.6027 60.0373 14.6296 60.2801H14.5296C14.4196 60.0801 14.1696 59.6901 14.0096 59.6801C14.1126 59.8634 14.1676 60.0698 14.1696 60.2801H14.0696C13.9951 60.1653 13.8916 60.0722 13.7696 60.0101C13.6936 59.961 13.6051 59.9349 13.5146 59.9349C13.4242 59.9349 13.3356 59.961 13.2596 60.0101C12.9439 60.2193 12.5779 60.3402 12.1996 60.3601H10.1996C9.36963 60.3601 8.88963 59.3001 8.99963 58.7901C9.10936 58.3388 9.14983 57.8735 9.11963 57.4101C9.04985 56.961 8.9394 56.5191 8.78963 56.0901C8.40843 55.2827 7.81798 54.5921 7.07963 54.0901C7.30963 53.9801 7.52963 53.8901 7.74963 53.7701C8.74963 53.4101 9.53963 51.9801 9.90963 51.0101L10.2496 50.0001ZM12.6096 39.5001C12.3075 39.3708 12.0165 39.217 11.7396 39.0401C11.0096 39.2901 10.9496 43.3601 10.7396 44.7901C10.6294 45.3207 10.479 45.8422 10.2896 46.3501L8.60963 50.8201C8.27876 51.837 7.61238 52.7114 6.71963 53.3001C6.45002 53.4099 6.18925 53.5403 5.93963 53.6901L5.80963 53.7601L5.55963 54.0001C5.18229 54.3981 4.89222 54.8705 4.70797 55.3871C4.52372 55.9037 4.44935 56.4531 4.48963 57.0001C4.49888 57.1509 4.56289 57.2931 4.66963 57.4001C4.62965 57.1315 4.62965 56.8586 4.66963 56.5901C4.95781 55.8001 5.41124 55.0808 5.99963 54.4801C6.20904 54.2877 6.44473 54.1261 6.69963 54.0001C6.97963 53.8501 7.23963 53.7501 7.45963 53.6301C8.52963 53.2501 9.25963 51.6301 9.51963 50.9701L11.1896 46.5001C11.3915 45.9776 11.5487 45.439 11.6596 44.8901L12.6596 39.5401L12.6096 39.5001ZM20.8496 48.4201C22.0731 48.9417 23.3672 49.2787 24.6896 49.4201C26.6096 49.4201 28.3796 48.0901 30.2996 48.0901C32.2196 48.0901 33.9896 49.4201 35.9096 49.4201C37.8296 49.4201 39.5996 48.0901 41.5196 48.0901C43.4396 48.0901 45.2196 49.4201 47.1396 49.4201C49.0596 49.4201 50.8296 48.0901 52.7496 48.0901C53.9848 48.2079 55.1933 48.5219 56.3296 49.0201V49.6901C55.1937 49.1888 53.9853 48.8715 52.7496 48.7501C50.8296 48.7501 49.0596 50.0901 47.1396 50.0901C45.2196 50.0901 43.4496 48.7501 41.5196 48.7501C39.5896 48.7501 37.8296 50.0901 35.9096 50.0901C33.9896 50.0901 32.2196 48.7501 30.2996 48.7501C28.3796 48.7501 26.6096 50.0901 24.6896 50.0901C23.3672 49.9487 22.0731 49.6117 20.8496 49.0901V48.4301V48.4201ZM20.8496 51.2501H20.9996L21.3396 51.3601L22.2496 51.6901L22.7296 51.8501L23.0796 51.9601L23.4296 52.0601H26.1596L26.5096 51.9601L26.8596 51.8401L28.1596 51.3801L28.5896 51.2401L28.9296 51.1401H30.8196L30.9996 51.0001H31.8496L32.1996 51.1101L33.4496 51.5501L33.9296 51.7101L34.2796 51.8201L34.6296 51.9201H37.3596L37.7096 51.8201L38.0596 51.7001L39.3596 51.2401L39.7896 51.1001L40.1296 51.0001H42.9996L43.3496 51.1101L44.0796 51.3601L44.6396 51.5601L45.0796 51.7101L45.4296 51.8201L45.7796 51.9201H48.5096L48.8596 51.8201L49.2996 51.6701L50.5096 51.2501L50.9996 51.1001L51.3396 51.0001H54.2596L54.6096 51.1101L55.7696 51.5201H55.8996L56.3296 51.6701V51.3201L56.0196 51.2201L55.0196 50.8701L54.5896 50.7201L54.1396 50.5901H51.3796L51.0296 50.6801L50.6796 50.7901L49.6796 51.1401L49.3796 51.2501L48.9496 51.3901L48.5996 51.5001L48.2596 51.5901H45.6796L45.3396 51.4901L44.7596 51.3001L43.7596 50.9501L43.3396 50.8001H39.9196L39.4796 50.9401L38.2196 51.3801L37.8396 51.5101L37.4896 51.6201L37.1496 51.7101H34.5696L34.2196 51.6101L33.7496 51.4501L32.5796 51.0001L31.9996 50.8701L31.6196 50.7701H28.7096L28.3596 50.8801L27.8796 51.0401L27.0596 51.3401L26.6296 51.4801L26.2896 51.5901L25.9496 51.6801H23.3696L23.0196 51.5801L22.5496 51.4201L21.4696 51.0001H20.9996L20.7996 50.9401V51.2901L20.8496 51.2501ZM20.8496 53.7501C22.0765 54.2717 23.374 54.6087 24.6996 54.7501C26.6196 54.7501 28.3896 53.4201 30.2996 53.4201C32.2096 53.4201 33.9896 54.7501 35.9096 54.7501C37.8296 54.7501 39.5996 53.4201 41.5196 53.4201C43.4396 53.4201 45.2096 54.7501 47.1296 54.7501C49.0496 54.7501 50.8196 53.4201 52.7396 53.4201C53.9785 53.5414 55.1903 53.8587 56.3296 54.3601V53.7001C55.1889 53.2025 53.9778 52.8853 52.7396 52.7601C50.8196 52.7601 49.0496 54.1001 47.1296 54.1001C45.2096 54.1001 43.4396 52.7601 41.5196 52.7601C39.5996 52.7601 37.8296 54.1001 35.9096 54.1001C33.9896 54.1001 32.2296 52.7601 30.2996 52.7601C28.3696 52.7601 26.6196 54.1001 24.6996 54.1001C23.374 53.9587 22.0765 53.6217 20.8496 53.1001V53.7501ZM56.3296 46.8801C46.8996 46.8801 30.3296 46.7601 20.8496 46.8801V47.8801C21.3196 48.0101 21.7796 48.1701 22.2396 48.3401C23.0924 48.7079 24.0026 48.9245 24.9296 48.9801H25.4096C27.1296 48.7801 28.6696 47.6901 30.4096 47.6901H30.9196C31.7087 47.8126 32.4807 48.0274 33.2196 48.3301C34.0992 48.7167 35.0405 48.9436 35.9996 49.0001H36.4696C38.1996 48.8001 39.7296 47.7101 41.4696 47.7101H41.9996C42.7919 47.8327 43.5672 48.0475 44.3096 48.3501C45.1617 48.7213 46.072 48.9413 46.9996 49.0001H47.4696C49.1996 48.8101 50.7296 47.7201 52.4696 47.7201C52.6395 47.7101 52.8098 47.7101 52.9796 47.7201C53.7687 47.8426 54.5407 48.0574 55.2796 48.3601L56.2796 48.7101V46.8701L56.3296 46.8801ZM33.3796 65.6201V67.3101L31.6796 65.6201H33.3796ZM44.4596 63.8401L46.1496 65.5401H44.4596V63.8401ZM33.4596 62.5301V60.1401L34.6596 61.3301L33.4596 62.5301ZM38.9196 55.9201L37.2296 57.6101H38.9196V55.9201ZM37.1396 67.3901V67.8801L38.8796 69.6101V65.6101L37.1296 67.3901H37.1396ZM34.5696 63.8001H33.4596V65.5401H38.8296L34.5696 63.8001ZM43.1796 61.2801L41.9996 60.0801H44.3996L43.1796 61.2801ZM40.6896 57.6901V61.2401L38.9996 65.4401V57.6901H40.6896ZM35.9996 60.1101L37.1396 61.2501L38.9096 65.4701L34.7696 61.3301L35.9996 60.1101ZM44.4196 65.6201V67.3501H40.7396L38.9996 65.6201H44.4196ZM43.2096 61.3901L44.4296 62.6201L43.2896 63.7601L38.9996 65.5101C40.3596 64.1601 41.8096 62.7501 43.1696 61.3901H43.2096ZM16.2096 60.8501L19.0396 61.7101V43.9101H20.4696V42.4101H18.9996V31.8501C18.9298 32.0377 18.8795 32.2321 18.8496 32.4301L18.7596 33.6701C18.6084 34.1425 18.3895 34.5905 18.1096 35.0001C17.6892 36.8998 16.5816 38.5772 14.9996 39.7101C14.8233 39.8347 14.6209 39.9175 14.4077 39.9522C14.1946 39.9869 13.9764 39.9724 13.7696 39.9101C13.5054 39.8137 13.2536 39.6862 13.0196 39.5301C12.7596 38.9901 12.3696 39.1101 11.8596 38.7901C10.579 37.8412 9.35682 36.816 8.19963 35.7201L7.80963 35.4001L7.70963 36.1101L9.70963 40.7701C10.0069 41.4685 10.1827 42.2125 10.2296 42.9701C10.2585 43.4741 10.1801 43.9785 9.99963 44.4501C9.76963 45.1501 9.46963 45.8201 9.20963 46.4501C9.03075 46.9579 8.88051 47.4754 8.75963 48.0001L8.21963 50.0001C8.01911 50.7455 7.64178 51.4315 7.11963 52.0001C6.54963 52.6301 5.91963 53.2101 5.30963 53.8101C4.90363 54.2305 4.59126 54.7321 4.39305 55.2819C4.19484 55.8317 4.11529 56.4173 4.15963 57.0001C4.18021 57.2118 4.26778 57.4115 4.40963 57.5701H4.93963C5.15922 57.5608 5.37883 57.5879 5.58963 57.6501C6.08752 57.6994 6.56824 57.8586 6.99711 58.1163C7.42598 58.374 7.7923 58.7236 8.06963 59.1401C8.13951 59.5 8.13951 59.8701 8.06963 60.2301H7.99963C7.89963 60.0001 7.76963 59.5001 7.47963 59.4501C7.58945 59.6949 7.6408 59.9619 7.62963 60.2301H7.52963C7.38869 59.9462 7.17899 59.7021 6.91963 59.5201C6.99099 59.75 7.02805 59.9893 7.02963 60.2301H6.89963C6.79963 60.0301 6.55963 59.6401 6.36963 59.6301C6.4748 59.8115 6.52028 60.0214 6.49963 60.2301H6.38963C6.30846 60.1273 6.20149 60.048 6.07963 60.0001C5.99083 59.951 5.89106 59.9253 5.78963 59.9253C5.6882 59.9253 5.58843 59.951 5.49963 60.0001C5.16371 60.1893 4.7929 60.3083 4.40963 60.3501C4.49634 60.3884 4.57715 60.4389 4.64963 60.5001C4.77116 60.5912 4.87034 60.7087 4.93965 60.8439C5.00896 60.979 5.04657 61.1282 5.04963 61.2801V61.4801H5.20963C5.32928 61.1896 5.54932 60.9518 5.82963 60.8101C6.13329 60.6233 6.47504 60.5071 6.82963 60.4701C6.95215 60.4501 7.07711 60.4501 7.19963 60.4701H7.29963C7.43425 60.4803 7.56794 60.5003 7.69963 60.5301L8.46963 60.7001C9.62937 60.9893 10.8094 61.1899 11.9996 61.3001C12.0966 61.13 12.2298 60.9832 12.3896 60.8701C12.5854 60.7891 12.7902 60.732 12.9996 60.7001C13.5227 60.5191 14.0783 60.4509 14.6296 60.5001C15.1671 60.5608 15.6967 60.6781 16.2096 60.8501ZM19.8096 62.0001L27.1696 64.2501C27.8275 64.4475 28.495 64.611 29.1696 64.7401C29.8296 64.8601 30.4996 64.9601 31.1696 65.0301H31.2896L31.6196 64.7001C30.2233 64.5814 28.8427 64.32 27.4996 63.9201L20.8796 61.9201V54.1201C21.3823 54.2498 21.8765 54.4101 22.3596 54.6001C23.094 54.8915 23.8588 55.0995 24.6396 55.2201C24.8061 55.2301 24.9731 55.2301 25.1396 55.2201C26.8996 55.2201 28.4096 54.1501 30.1396 53.9601H30.5996C31.5199 54.0179 32.4232 54.2345 33.2696 54.6001C34.0005 54.8915 34.762 55.0995 35.5396 55.2201C35.7095 55.2301 35.8798 55.2301 36.0496 55.2201C37.7996 55.2201 39.3196 54.1501 41.0496 53.9501H41.5196C42.4369 54.006 43.3373 54.2227 44.1796 54.5901C44.914 54.8815 45.6788 55.0895 46.4596 55.2101C46.6261 55.2201 46.7931 55.2201 46.9596 55.2101C48.7196 55.2101 50.2396 54.1301 51.9596 53.9401H52.4296C53.3456 53.9975 54.2452 54.2105 55.0896 54.5701C55.5296 54.7301 55.9796 54.9001 56.4296 55.0201V61.8701L49.9096 63.8701C48.7309 64.2224 47.5226 64.4668 46.2996 64.6001L46.6296 64.9201H46.7396C47.3296 64.8501 47.9196 64.7501 48.4896 64.6401C49.0701 64.5228 49.6442 64.376 50.2096 64.2001L57.4896 62.0001V44.7101H56.0596V41.6001H57.4896V21.7401H52.2896V23.1701H45.1796V20.1701L38.6496 18.0001L32.1096 20.1401V23.1401H24.9996V21.7401H19.7996V41.6001H21.2296V44.7101H19.7996V62.0001H19.8096ZM30.6796 65.7001C30.0596 65.6301 29.4396 65.5301 28.8296 65.4101C28.2196 65.2901 27.5996 65.1301 26.9996 65.0001L15.9996 61.5401C15.5409 61.3887 15.0688 61.2816 14.5896 61.2201C14.1161 61.1712 13.6377 61.2293 13.1896 61.3901C12.9141 61.461 12.6773 61.6368 12.5296 61.8801C12.4416 62.0917 12.4072 62.3219 12.4296 62.5501V66.4501C12.4577 66.6406 12.5536 66.8146 12.6996 66.9401C12.8753 67.0908 13.0904 67.1879 13.3196 67.2201C13.8567 67.3 14.4026 67.3 14.9396 67.2201C15.4364 67.1401 15.9428 67.1401 16.4396 67.2201C16.7468 67.24 17.0371 67.3675 17.2596 67.5801C17.3232 67.6591 17.3553 67.7588 17.3496 67.8601C17.3391 67.9546 17.2968 68.0427 17.2296 68.1101C17.0461 68.2622 16.8178 68.3501 16.5796 68.3601L16.2196 68.2401L16.4996 68.0901L16.5996 68.0201C16.5792 67.9865 16.5472 67.9615 16.5096 67.9501C16.3479 67.8607 16.172 67.7998 15.9896 67.7701C15.5149 67.71 15.0344 67.71 14.5596 67.7701C13.5596 67.8701 12.3896 67.9701 11.8496 67.1501C11.7099 66.9414 11.6495 66.6894 11.6796 66.4401V62.2601C10.4367 62.1482 9.20564 61.9307 7.99963 61.6101L7.21963 61.4301L6.87963 61.3801H6.64963C6.3975 61.3803 6.1534 61.4687 5.95963 61.6301C5.81896 61.7274 5.71369 61.8678 5.65963 62.0301V67.1001C5.65963 68.2401 9.16963 68.3501 8.56963 68.7401C8.44963 68.8601 8.46963 68.9101 8.25963 68.8201C7.82963 68.6501 7.25963 68.5301 6.73963 68.3801C5.63966 67.859 4.42354 67.6317 3.20963 67.7201H2.82963C2.68058 67.7004 2.53741 67.6493 2.40963 67.5701C0.99963 66.7001 3.59963 65.9201 4.14963 66.7101C4.15953 66.7663 4.15953 66.8238 4.14963 66.8801C4.14963 67.1101 3.87963 67.1901 3.64963 67.2201L3.78963 67.3401H3.85963C3.92793 67.3427 3.99609 67.3319 4.0602 67.3082C4.12432 67.2845 4.18314 67.2485 4.23329 67.202C4.28345 67.1556 4.32395 67.0997 4.35249 67.0376C4.38104 66.9755 4.39705 66.9084 4.39963 66.8401V61.4001C4.39923 61.3227 4.37081 61.2481 4.31963 61.1901C4.22811 61.1041 4.11889 61.0393 3.99963 61.0001C3.79262 60.9177 3.57238 60.8737 3.34963 60.8701C3.00445 60.8715 2.66355 60.9465 2.34963 61.0901C2.08911 61.1918 1.87062 61.3785 1.72963 61.6201C1.71966 61.6696 1.71966 61.7206 1.72963 61.7701V67.1001C1.72287 67.2067 1.74209 67.3133 1.78564 67.4109C1.82918 67.5084 1.89575 67.5939 1.97963 67.6601H1.99963C2.25841 67.8315 2.55942 67.9284 2.86963 67.9401H3.30963C3.98677 67.9494 4.65954 68.0503 5.30963 68.2401L5.74963 68.3801C6.44941 68.6413 7.16818 68.8486 7.89963 69.0001C8.27457 69.0855 8.66799 69.0247 8.99963 68.8301C9.05112 68.7905 9.08662 68.7337 9.09963 68.6701C9.11971 68.6186 9.11971 68.5615 9.09963 68.5101C9.06149 68.4271 9.00461 68.3541 8.93347 68.2968C8.86232 68.2395 8.77885 68.1996 8.68963 68.1801L6.75963 67.5801C6.57808 67.5322 6.42107 67.418 6.31963 67.2601C6.29512 67.2157 6.28226 67.1658 6.28226 67.1151C6.28226 67.0643 6.29512 67.0145 6.31963 66.9701C6.37617 66.8945 6.45223 66.8357 6.53963 66.8001C6.85076 66.6522 7.1988 66.6 7.53963 66.6501C7.82227 66.6987 8.10003 66.7723 8.36963 66.8701C8.54749 66.9399 8.72112 67.02 8.88963 67.1101C9.43111 67.4083 10.0005 67.6528 10.5896 67.8401C11.1874 68.0096 11.8003 68.1202 12.4196 68.1701L15.4196 68.4201H15.8096C16.5696 68.4201 17.7096 68.4201 17.7496 67.7701C17.8896 65.7701 12.5596 67.3401 12.7996 66.3601C13.0696 65.6101 14.4896 65.7901 14.9696 65.8701H14.9996C15.4467 65.9311 15.8881 66.0281 16.3196 66.1601C16.7607 66.3005 17.1917 66.4709 17.6096 66.6701C18.4996 67.0801 19.2996 67.4901 20.0896 67.9301C20.8796 68.3701 21.6696 68.8701 22.5396 69.4601C23.2614 69.9594 24.058 70.3409 24.8996 70.5901C25.7404 70.8363 26.6136 70.9543 27.4896 70.9401C31.2196 70.9401 34.9496 70.8801 38.6796 70.9401C42.4096 71.0001 46.1296 70.9401 49.8596 70.9401C50.7386 70.9488 51.6142 70.8309 52.4596 70.5901C53.298 70.3407 54.0913 69.9592 54.8096 69.4601C55.6996 68.8601 56.4996 68.3601 57.2996 67.9101C58.0996 67.4601 58.8896 67.0601 59.7396 66.6701C60.1609 66.4708 60.5953 66.3005 61.0396 66.1601C61.468 66.0291 61.906 65.9321 62.3496 65.8701H62.4596C62.8915 65.82 63.3277 65.82 63.7596 65.8701C63.9164 65.8748 64.0703 65.914 64.2103 65.9849C64.3503 66.0557 64.4729 66.1565 64.5696 66.2801C64.6323 66.3741 64.6573 66.4884 64.6396 66.6001C64.6151 66.7146 64.547 66.815 64.4496 66.8801C63.9666 67.1413 63.4056 67.2194 62.8696 67.1001H62.4996C61.7298 66.9284 60.9256 67.0018 60.1996 67.3101C60.0471 67.3924 59.922 67.5176 59.8396 67.6701C59.8096 67.7678 59.8096 67.8723 59.8396 67.9701C59.8704 68.074 59.9292 68.1674 60.0096 68.2401C60.1802 68.3814 60.3892 68.4685 60.6096 68.4901H62.0496L65.0496 68.2401C66.2918 68.1609 67.4994 67.7983 68.5796 67.1801C68.7481 67.09 68.9218 67.0099 69.0996 66.9401C69.3692 66.8423 69.647 66.7687 69.9296 66.7201C70.2705 66.6687 70.6189 66.721 70.9296 66.8701C70.9588 66.91 70.9824 66.9537 70.9996 67.0001C71.029 67.0464 71.0445 67.1002 71.0445 67.1551C71.0445 67.2099 71.029 67.2637 70.9996 67.3101C70.8287 67.4935 70.6051 67.6192 70.3596 67.6701L68.4696 68.2701C68.4116 68.298 68.3597 68.3371 68.3168 68.3852C68.2739 68.4332 68.2409 68.4893 68.2196 68.5501C68.1998 68.605 68.1998 68.6651 68.2196 68.7201C68.2419 68.7875 68.2882 68.8444 68.3496 68.8801C68.6785 69.0402 69.0505 69.0893 69.4096 69.0201C69.9518 68.9261 70.484 68.7822 70.9996 68.5901C71.7217 68.2992 72.4777 68.101 73.2496 68.0001H74.4896C74.6492 67.9821 74.8066 67.9487 74.9596 67.9001C75.0962 67.8598 75.2272 67.8027 75.3496 67.7301C75.4298 67.6802 75.4926 67.6069 75.5296 67.5201C75.5777 67.4062 75.6015 67.2836 75.5996 67.1601V61.8101C75.6096 61.7606 75.6096 61.7096 75.5996 61.6601C75.4624 61.4192 75.2473 61.2323 74.9896 61.1301C74.6558 60.9826 74.2945 60.9076 73.9296 60.9101C73.7069 60.9137 73.4866 60.9577 73.2796 61.0401C73.1693 61.0889 73.0705 61.1605 72.9896 61.2501C72.9385 61.3081 72.91 61.3827 72.9096 61.4601V66.8101C72.9096 67.2401 73.2096 67.3301 73.4496 67.3901H73.5196L73.6596 67.2701C73.4296 67.2701 73.1796 67.1601 73.1596 66.9401C73.1398 66.8817 73.1398 66.8184 73.1596 66.7601C73.2109 66.7007 73.2737 66.6524 73.3441 66.6181C73.4146 66.5837 73.4913 66.5639 73.5696 66.5601C73.7585 66.5301 73.9508 66.5301 74.1396 66.5601C74.516 66.601 74.8679 66.7664 75.1396 67.0301C75.3196 67.2201 75.3396 67.3701 75.2596 67.5101C74.8021 67.6594 74.3182 67.7105 73.8396 67.6601C71.3796 67.0901 70.4496 69.1101 68.8396 68.8501C68.7734 68.8314 68.7172 68.7872 68.6835 68.7273C68.6497 68.6673 68.6412 68.5964 68.6596 68.5301C68.6695 68.4887 68.6902 68.4508 68.7196 68.4201C69.2596 68.2501 71.7196 67.7701 71.5896 67.1401V62.0001C71.5356 61.8378 71.4303 61.6974 71.2896 61.6001C71.0924 61.4449 70.8505 61.3572 70.5996 61.3501H70.4796C69.9296 61.4201 69.1996 61.5901 68.5496 61.7401L67.9796 61.8701C67.5396 61.9701 67.1096 62.0601 66.6896 62.1201C66.3053 62.1803 65.9181 62.2204 65.5296 62.2401V66.3001C65.5696 66.588 65.5096 66.881 65.3596 67.1301C64.8196 67.9501 63.6996 67.8501 62.6396 67.7601C62.1682 67.7 61.6911 67.7 61.2196 67.7601C61.0329 67.8023 60.8517 67.866 60.6796 67.9501C60.6796 68.0501 60.9396 68.2701 60.2996 68.2001C59.7596 67.6801 60.6196 67.3601 60.9396 67.2901C61.4076 67.2415 61.8803 67.2686 62.3396 67.3701C62.906 67.4285 63.4777 67.4117 64.0396 67.3201C64.2584 67.3037 64.4657 67.2159 64.6296 67.0701C64.7896 66.9201 64.7596 66.6201 64.7796 66.4501V62.5601C64.7963 62.3288 64.7621 62.0967 64.6796 61.8801C64.5297 61.639 64.2938 61.4638 64.0196 61.3901C63.5723 61.2263 63.0924 61.1715 62.6196 61.2301C62.14 61.2833 61.6674 61.3872 61.2096 61.5401L50.2096 64.9101C49.6796 65.0701 49.1396 65.2101 48.6096 65.3201C48.0796 65.4301 47.6096 65.5201 47.0796 65.5901L44.7696 67.9101H41.2396V68.1901L38.9196 70.5101L36.5996 68.2201V67.9401H32.9996L30.7196 65.6601L30.6796 65.7001ZM18.9996 30.2201C18.7596 30.3901 18.3496 30.5201 18.5996 30.7501L18.9996 30.5701V30.2201ZM18.9996 30.7001C18.6596 30.9101 18.4596 31.0801 18.6496 31.2601L18.9996 31.0001V30.7001ZM18.9996 31.2201C18.6696 31.4301 18.6996 31.3601 18.9996 31.6301V31.2201ZM67.3796 20.0001C67.4912 19.9898 67.6016 19.9697 67.7096 19.9401V19.8101C67.6352 19.6485 67.5097 19.5159 67.3525 19.4328C67.1953 19.3496 67.015 19.3206 66.8396 19.3501H65.9996C65.9635 19.3492 65.928 19.3593 65.8977 19.3789C65.8674 19.3985 65.8437 19.4268 65.8296 19.4601C66.1035 19.5001 66.3698 19.581 66.6196 19.7001L66.8596 19.7901L67.1496 19.8901H67.4496L67.3796 20.0001ZM67.5696 20.5001C67.2264 20.4467 66.8907 20.3527 66.5696 20.2201L66.1496 20.0801L65.8796 20.0001H65.5696C65.3822 20.0116 65.1971 20.0486 65.0196 20.1101C64.8668 20.1622 64.7194 20.2292 64.5796 20.3101L64.4196 20.4001V20.2101C64.4399 20.1146 64.4821 20.0252 64.5428 19.9489C64.6036 19.8725 64.6812 19.8113 64.7696 19.7701C65.0058 19.6468 65.2642 19.5721 65.5296 19.5501L65.4696 19.4401H65.3096C65.267 19.4178 65.2308 19.385 65.2045 19.3447C65.1782 19.3044 65.1628 19.2581 65.1596 19.2101C65.1396 19.0808 65.1396 18.9493 65.1596 18.8201C65.1702 18.7822 65.1891 18.7473 65.2151 18.7178C65.2411 18.6884 65.2734 18.6652 65.3096 18.6501L66.5896 18.4401C66.8236 18.3788 67.0463 18.281 67.2496 18.1501C67.5496 17.9901 67.7896 17.7201 68.0996 17.5201C68.4096 17.3201 68.7996 17.2201 69.0996 17.0501C69.2211 16.9518 69.3178 16.8264 69.382 16.684C69.4463 16.5416 69.4763 16.3861 69.4696 16.2301C69.609 16.2342 69.7454 16.2718 69.8672 16.3397C69.989 16.4075 70.0928 16.5037 70.1696 16.6201C70.3096 16.8801 70.4296 17.2801 70.5596 17.4601C70.7894 17.7881 71.0506 18.0928 71.3396 18.3701C71.8779 18.8923 72.3302 19.4965 72.6796 20.1601C72.8448 20.5157 72.9722 20.8878 73.0596 21.2701H70.1596C69.6794 21.2915 69.2015 21.3484 68.7296 21.4401L68.5396 21.2901C68.3731 21.1702 68.1915 21.0727 67.9996 21.0001C67.5726 20.869 67.1224 20.8315 66.6796 20.8901H66.4296V21.1301H66.0496C65.8995 21.129 65.7518 21.0913 65.6196 21.0201C65.5697 20.9807 65.5294 20.9306 65.5017 20.8734C65.474 20.8163 65.4596 20.7536 65.4596 20.6901V20.5101H65.6696L65.7796 20.2001L65.8996 20.3901C65.9232 20.4425 65.9634 20.4856 66.0141 20.5128C66.0647 20.5399 66.1229 20.5495 66.1796 20.5401H67.5696V20.5001ZM72.8896 22.7701L73.0396 22.5301C73.0296 22.4638 73.0296 22.3964 73.0396 22.3301L73.1696 22.1501H72.5396L72.7096 22.3301V22.5401L72.8896 22.7801V22.7701ZM72.0096 22.7701L72.1596 22.5301V22.3201L72.2996 22.1301H71.6596L71.8296 22.3201V22.5201L72.0096 22.7701ZM71.1296 22.7701L71.2796 22.5201V22.3101L71.4196 22.1201H70.7796L70.9496 22.3001V22.5001L71.1296 22.7401V22.7701ZM70.2596 22.8301C70.2596 22.7401 70.3496 22.6601 70.3996 22.5701C70.4496 22.4801 70.3996 22.4301 70.3996 22.3601C70.3996 22.2901 70.4896 22.2301 70.5396 22.1601H69.9096L70.0696 22.3301V22.5401L70.2596 22.7701V22.8301ZM69.3796 22.9201L69.5196 22.6601V22.4501L69.6496 22.2401H68.9996L69.1696 22.4101V22.6201C69.1696 22.6901 69.2996 22.7601 69.3596 22.8401L69.3796 22.9201ZM67.6596 23.1201L67.7696 22.9201V22.7101L67.9096 22.5001L67.5896 22.5601L67.2696 22.6201L67.4396 22.7801V23.0001L67.5696 23.1501H67.2796V23.2501H67.1396V22.4301L67.2196 22.5101L67.3596 22.2401V22.0001L67.4196 21.9001H67.8396L67.9096 21.9601V22.1701L68.0896 22.3701C68.0896 22.2801 68.1796 22.1901 68.2296 22.1001C68.2796 22.0101 68.2296 21.9701 68.2296 21.9001L68.2896 21.8101H68.6996L68.7796 21.8901C68.7696 21.9564 68.7696 22.0238 68.7796 22.0901L68.9596 22.3101L69.1096 22.0501V21.8401L69.2396 21.6301H69.4896L69.6596 21.8001V22.0001L69.8496 22.2301C69.8496 22.1401 69.9396 22.0501 69.9896 21.9701V21.7601L70.1196 21.5501H70.3596L70.5296 21.7201V21.9301C70.5875 22.0111 70.651 22.088 70.7196 22.1601L70.8596 21.9101V21.7101C70.8596 21.6501 70.9496 21.5701 70.9996 21.5101H71.2396L71.4096 21.6901V21.9001L71.5896 22.1301L71.7396 21.8901V21.6801L71.8796 21.4901H71.9996L72.1696 21.6801V21.8801L72.3496 22.1201L72.4996 21.8901V21.6801L72.6296 21.5001H72.8796C72.9309 21.568 72.9878 21.6315 73.0496 21.6901V21.9001L73.2396 22.1401L73.3396 21.9801V22.8701H72.4596C71.6986 22.8601 70.9375 22.8902 70.1796 22.9601C69.7433 22.9798 69.309 23.03 68.8796 23.1101L68.9996 23.0001L68.4996 23.0801L68.6096 22.8801V22.6701L68.7496 22.4601H68.1096L68.2796 22.6301V22.8301L68.4096 22.9901L67.6196 23.1301L67.6596 23.1201ZM67.7396 18.4001C67.9335 18.4852 68.1531 18.491 68.3512 18.4162C68.5493 18.3414 68.7103 18.1921 68.7996 18.0001C67.9996 18.0001 68.0096 18.3501 67.7396 18.4501V18.4001ZM67.1796 21.1001C67.5193 21.1499 67.8325 21.3118 68.0696 21.5601C67.8449 21.5743 67.623 21.618 67.4096 21.6901C67.3396 21.5601 67.4096 21.1401 67.1796 21.1001ZM68.4896 23.2701C68.0362 23.9937 67.7398 24.8046 67.6196 25.6501C67.6196 26.1301 66.6196 31.7101 64.9196 29.9401C64.8426 29.8667 64.7928 29.7694 64.7783 29.664C64.7638 29.5587 64.7854 29.4515 64.8396 29.3601C64.9514 29.4295 65.0784 29.4707 65.2096 29.4801C65.3924 29.5212 65.583 29.5103 65.7598 29.4484C65.9366 29.3865 66.0925 29.2762 66.2096 29.1301C66.5899 28.6217 66.859 28.0391 66.9996 27.4201C67.1298 26.8455 67.2002 26.2591 67.2096 25.6701C67.1888 24.9622 67.3007 24.2567 67.5396 23.5901V23.4301L68.4896 23.2701ZM58.2996 24.5201L59.1396 24.7501C58.9566 24.5937 58.783 24.4268 58.6196 24.2501L58.2996 24.0701V24.5201ZM58.2996 23.9001L59.2996 24.3401L58.2996 23.5101L59.4896 24.0301C59.4896 23.9801 58.4896 23.2601 58.4896 23.2101L58.2696 23.0901L58.2996 23.9001ZM66.2196 35.3901H66.0796C65.7788 35.4027 65.489 35.5074 65.2496 35.6901L63.8896 36.5401C63.6704 36.6933 63.4154 36.7875 63.1492 36.8138C62.8831 36.8401 62.6146 36.7975 62.3696 36.6901C62.0876 36.5732 61.8193 36.4256 61.5696 36.2501L59.5696 34.9301C59.4781 34.8719 59.4021 34.7923 59.3481 34.6983C59.2941 34.6042 59.2637 34.4984 59.2596 34.3901L59.1796 34.0001L58.5196 33.5801H59.0796V33.4401L58.4796 33.1001L58.9996 33.0001V32.8901L58.4896 32.6001H58.8996V32.4801L58.4896 32.2501H59.3096C59.698 32.2599 60.0716 32.4008 60.3696 32.6501L61.7996 33.9101C62.0096 34.0701 62.1696 34.4101 62.3496 34.5601C62.3922 34.5941 62.4451 34.6127 62.4996 34.6127C62.5542 34.6127 62.6071 34.5941 62.6496 34.5601L63.9996 33.6401L64.1896 33.4801L64.3996 33.1901L65.9996 34.3101C66.3496 34.8201 67.4696 35.9901 67.9996 36.8401C68.2763 37.3009 68.4343 37.8232 68.4596 38.3601L69.7096 45.8801C69.8996 47.4401 68.6296 48.2101 67.2696 48.5801C66.3296 48.8401 65.4096 49.1101 64.4896 49.3901C65.6127 48.9891 66.663 48.4082 67.5996 47.6701C68.0466 47.2285 68.4008 46.702 68.6412 46.1215C68.8816 45.5411 69.0035 44.9184 68.9996 44.2901C68.9822 43.6544 68.8882 43.0232 68.7196 42.4101C68.5696 41.7401 68.3696 41.0401 68.1996 40.3301C67.9796 39.4201 67.8596 38.4501 67.6296 37.6101C67.5008 37.2112 67.3403 36.8233 67.1496 36.4501C66.9204 36.0333 66.603 35.6716 66.2196 35.3901ZM66.3996 60.1101C66.3897 60.1864 66.3897 60.2637 66.3996 60.3401H66.4796C66.6112 60.2125 66.7684 60.1144 66.9408 60.0523C67.1133 59.9902 67.2969 59.9656 67.4796 59.9801H70.1996C70.8096 59.9801 71.2996 59.1201 71.3196 58.6501C71.2986 58.2096 71.1898 57.7779 70.9996 57.3801L71.5696 58.1901L72.2296 58.6101C72.4941 58.7753 72.8074 58.8446 73.1169 58.8063C73.4263 58.7681 73.7133 58.6247 73.9296 58.4001C74.4057 57.8415 74.671 57.1339 74.6796 56.4001C74.6702 55.1483 74.3797 53.9146 73.8296 52.7901C73.5513 52.2083 73.3075 51.6106 73.0996 51.0001C73.1277 51.3369 73.1812 51.6712 73.2596 52.0001C73.5292 52.8846 73.5807 53.8213 73.4096 54.7301C73.2096 55.4801 72.4896 56.1501 71.8996 55.9001C71.3096 55.6501 70.9896 54.2101 71.0496 53.5601C71.3316 52.1705 71.7991 50.8251 72.4396 49.5601C73.2265 47.7078 73.8945 45.8073 74.4396 43.8701C74.6556 43.0212 74.7929 42.1542 74.8496 41.2801C74.877 38.7171 74.4713 36.1679 73.6496 33.7401C73.2985 32.5111 73.0214 31.2622 72.8196 30.0001C72.7329 29.3372 72.7061 28.6678 72.7396 28.0001C72.8059 26.988 72.9632 25.9839 73.2096 25.0001C71.8894 26.6469 70.8397 28.4933 70.0996 30.4701C69.2196 32.9301 69.6096 37.1101 69.9996 39.6501C70.3296 41.4172 70.5401 43.2046 70.6296 45.0001C70.7038 45.5699 70.6231 46.1491 70.3961 46.677C70.1691 47.2049 69.8042 47.6619 69.3396 48.0001C68.8138 48.3929 68.2158 48.6783 67.5796 48.8401C66.6496 49.1001 65.7296 49.3601 64.8096 49.6501C64.3796 49.7801 64.1696 49.7401 63.5996 49.9301C62.5996 50.2601 62.6996 51.2301 62.6996 51.8801C62.6996 53.4401 64.0596 54.8801 63.7996 56.6101C63.7537 56.9236 63.6406 57.2236 63.468 57.4894C63.2954 57.7552 63.0674 57.9805 62.7996 58.1501C62.2196 58.4701 61.4496 58.0801 60.7996 58.2601C60.4523 58.3725 60.1574 58.607 59.9696 58.9201C59.6575 59.4176 59.4912 59.9927 59.4896 60.5801C59.7328 60.1879 60.0786 59.8698 60.4896 59.6601C60.3016 59.9307 60.1972 60.2506 60.1896 60.5801C60.5596 60.1301 60.9196 59.6901 61.1896 59.6701C60.9671 59.9221 60.8397 60.244 60.8296 60.5801H60.9996C61.2879 60.2803 61.6263 60.0333 61.9996 59.8501C61.8679 60.0694 61.8117 60.3258 61.8396 60.5801H61.9096C62.0436 60.456 62.2012 60.3602 62.373 60.2983C62.5448 60.2365 62.7273 60.2099 62.9096 60.2201H65.6296C66.2396 60.2201 66.7296 59.3701 66.7496 58.8901C66.609 58.1622 66.4219 57.4441 66.1896 56.7401C66.0896 56.0101 66.3596 54.9101 67.4196 54.9201C67.7024 54.9236 67.984 54.9571 68.2596 55.0201C68.351 55.4808 68.3879 55.9507 68.3696 56.4201C68.3237 56.7336 68.2106 57.0336 68.038 57.2994C67.8654 57.5652 67.6374 57.7905 67.3696 57.9601C67.4395 58.19 67.4699 58.43 67.4596 58.6701C67.4345 58.9807 67.3291 59.2795 67.1538 59.5371C66.9785 59.7948 66.7393 60.0026 66.4596 60.1401L66.3996 60.1101ZM74.3096 52.6901C73.8136 51.7519 73.4757 50.7382 73.3096 49.6901C73.3766 49.2572 73.4735 48.8295 73.5996 48.4101C74.1496 46.4901 75.0696 44.6101 75.5996 42.7401C75.8886 42.0584 76.0512 41.3299 76.0796 40.5901C76.0296 40.0199 75.919 39.4568 75.7496 38.9101C75.5204 38.2033 75.34 37.4816 75.2096 36.7501C75.1506 36.1764 75.2295 35.597 75.4396 35.0601C75.6996 34.3901 76.0096 33.7101 76.3396 33.0601L77.8496 30.8601V53.5501C77.8611 55.0202 77.4889 56.4678 76.7696 57.7501C76.3055 58.4266 75.702 58.996 74.9996 59.4201L74.7396 59.4901C74.3275 59.6329 73.8819 59.6483 73.4609 59.5341C73.0399 59.42 72.6631 59.1816 72.3796 58.8501C72.6901 59.0429 73.0566 59.1252 73.4197 59.0834C73.7828 59.0417 74.1211 58.8784 74.3796 58.6201C74.9253 58.0195 75.2344 57.2413 75.2496 56.4301C75.2411 55.1331 74.9403 53.8548 74.3696 52.6901H74.3096ZM46.8796 32.1701L49.8096 37.7501H47.8096C47.6337 37.2347 47.3009 36.7873 46.858 36.4705C46.4151 36.1537 45.8842 35.9834 45.3396 35.9834C44.7951 35.9834 44.2642 36.1537 43.8212 36.4705C43.3783 36.7873 43.0456 37.2347 42.8696 37.7501H40.8696L43.7996 32.1701V28.4301H43.2796V27.0001H46.9996V28.4401H46.9296V32.1801L46.8796 32.1701ZM30.9996 65.6201L32.9996 63.6201H33.9996L32.9996 62.6201V59.6801H35.8796L36.8796 60.6801V57.2301L38.8796 55.2301L40.8796 57.2301V60.7101L41.8796 59.7101H44.7696V62.5901L43.7696 63.5901H44.6996L46.6996 65.5901L44.6996 67.5901H40.9996V68.0001L38.9996 70.0001L36.9996 68.0001V67.5501H33.1996L31.1996 65.5501L30.9996 65.6201ZM34.5296 7.34006L33.8796 0.86006L34.5996 1.79006L35.1296 7.39006L34.5296 7.34006ZM26.7796 16.0001C26.7442 15.9557 26.7194 15.9037 26.7073 15.8482C26.6952 15.7927 26.6959 15.7352 26.7096 15.6801C26.7949 15.6408 26.8701 15.5826 26.9296 15.5101C26.9819 15.4533 27.0257 15.3893 27.0596 15.3201C27.5555 15.0791 28.0847 14.9139 28.6296 14.8301C28.8579 14.8271 29.0855 14.8037 29.3096 14.7601L29.7796 14.6401C30.6896 14.5201 31.7796 14.4201 32.9196 14.3601H33.7096C37.5873 14.1916 41.4717 14.2685 45.3396 14.5901C45.6755 14.7674 46.042 14.8794 46.4196 14.9201C46.9574 14.9901 47.5019 14.9901 48.0396 14.9201L49.0396 15.1301C49.189 15.2669 49.3574 15.3814 49.5396 15.4701C49.7758 15.5915 50.0238 15.6887 50.2796 15.7601C50.2982 15.8068 50.3033 15.8577 50.2945 15.9072C50.2857 15.9566 50.2632 16.0027 50.2296 16.0401C49.1596 17.5201 27.8096 17.4501 26.7896 16.0401L26.7796 16.0001ZM28.2696 15.8301C26.8396 14.4101 49.9296 14.6501 48.7296 15.8301C47.7296 16.8301 29.2496 16.8301 28.2696 15.8301ZM42.2696 7.32006L42.9996 0.86006L42.2796 1.79006L41.7496 7.39006L42.3496 7.34006L42.2696 7.32006ZM47.8896 8.48006L49.4896 2.39006L48.1696 3.39006L46.9996 8.34006L47.8896 8.48006ZM28.8896 8.59006L27.2896 2.50006L28.6096 3.50006L29.8496 8.42006L28.8896 8.59006ZM51.3896 11.5401C51.4896 11.1801 51.6096 10.7701 51.7396 10.3201C51.3796 10.1601 50.7396 9.91006 49.9196 9.63006L49.5396 11.0001C49.7184 11.0902 49.902 11.1704 50.0896 11.2401C50.392 11.325 50.7089 11.3455 51.0196 11.3001H51.0896C51.1283 11.3097 51.1636 11.3297 51.1918 11.3579C51.22 11.3861 51.24 11.4214 51.2496 11.4601H51.3896V11.5401ZM35.8396 3.82006L35.7396 0.680059C36.5396 0.610059 37.3696 0.580059 38.2296 0.560059V3.69006C37.4096 3.69006 36.6096 3.75006 35.8396 3.82006ZM41.0296 3.82006L41.1296 0.680059C40.3296 0.610059 39.4996 0.580059 38.6396 0.560059V3.69006C39.4596 3.69006 40.2596 3.75006 40.9996 3.82006H41.0296ZM41.0296 4.25006C39.3129 4.10006 37.5864 4.10006 35.8696 4.25006C35.8696 5.25006 35.9596 6.25006 35.9596 7.19006C37.6229 7.04004 39.2963 7.04004 40.9596 7.19006C40.9596 6.19006 40.9596 5.19006 41.0396 4.25006H41.0296ZM44.0296 9.46006L44.1796 8.15006L42.9996 8.00006C41.5596 7.80006 40.1096 7.67006 38.6496 7.61006V8.88006L39.0496 8.79006C39.6827 8.78022 40.3144 8.85078 40.9296 9.00006C41.3299 9.01102 41.7282 8.93954 42.0996 8.79006H42.1696C42.2052 8.79379 42.2396 8.80453 42.271 8.82167C42.3023 8.83882 42.33 8.86201 42.3523 8.88992C42.3746 8.91783 42.3912 8.94989 42.401 8.98424C42.4109 9.0186 42.4138 9.05457 42.4096 9.09006V9.15006C42.3668 9.28908 42.3027 9.42064 42.2196 9.54006C42.3118 9.54803 42.4013 9.57529 42.4823 9.62008C42.5632 9.66488 42.6339 9.72619 42.6896 9.80006C43.1075 9.63089 43.5498 9.52961 43.9996 9.50006L44.0296 9.46006ZM38.2396 9.00006V7.58006C36.7896 7.64006 35.3296 7.77006 33.8896 7.97006C33.5096 8.02006 33.1196 8.08006 32.7396 8.15006L32.8996 9.53006C33.1495 9.35172 33.4219 9.20714 33.7096 9.10006C34.2856 8.98687 34.8745 8.95323 35.4596 9.00006C35.8175 8.93885 36.1583 8.80253 36.4596 8.60006C36.5312 8.60006 36.5999 8.62851 36.6505 8.67914C36.7012 8.72977 36.7296 8.79845 36.7296 8.87006C36.717 8.97552 36.6935 9.0794 36.6596 9.18006H36.8396C36.9309 9.18471 37.0203 9.20743 37.1027 9.24691C37.1851 9.2864 37.2588 9.34185 37.3196 9.41006C37.574 9.24708 37.8456 9.11292 38.1296 9.01006L38.2396 9.00006ZM49.2396 10.9101L49.6096 9.54006C47.9915 9.01263 46.3415 8.58845 44.6696 8.27006H44.5996L44.4696 9.51006C45.0236 9.6231 45.5659 9.78714 46.0896 10.0001C46.4664 10.0701 46.8529 10.0701 47.2296 10.0001H47.2996C47.3671 10.021 47.4241 10.0666 47.4594 10.1278C47.4946 10.189 47.5054 10.2612 47.4896 10.3301C47.4768 10.362 47.46 10.3923 47.4396 10.4201C47.5515 10.4338 47.6582 10.4747 47.7506 10.5392C47.843 10.6037 47.9182 10.6898 47.9696 10.7901C48.2388 10.7601 48.5105 10.7601 48.7796 10.7901C48.9472 10.8099 49.1118 10.8502 49.2696 10.9101H49.2396ZM47.2396 5.33006C45.8449 4.95811 44.429 4.67091 42.9996 4.47006L42.6996 7.38006C44.0452 7.55955 45.3804 7.80989 46.6996 8.13006L47.2396 5.33006ZM45.4496 1.33006C44.7896 1.20006 44.1096 1.08006 43.3896 0.980059L42.9996 4.00006C43.6596 4.09006 44.2896 4.19006 44.8896 4.31006L45.3796 1.23006L45.4496 1.33006ZM47.3296 4.94006L47.9096 1.94006C47.2696 1.77006 46.5896 1.60006 45.9096 1.45006L45.4296 4.53006C46.1096 4.67006 46.7596 4.82006 47.3696 4.98006L47.3296 4.94006ZM52.9996 6.94006C53.5896 5.50006 54.1796 4.32006 54.1796 4.32006C53.5736 3.9795 52.9493 3.67237 52.3096 3.40006L51.3696 6.22006C52.1596 6.52006 52.7096 6.79006 52.9996 6.93006V6.94006ZM51.9096 3.23006C51.3396 2.99006 50.6796 2.74006 49.9096 2.48006L49.1296 5.42006C49.8196 5.64006 50.4296 5.86006 50.9496 6.06006L51.9096 3.23006ZM51.9096 9.83006C52.0596 9.34006 52.2296 8.83006 52.4096 8.33006C52.5296 8.00006 52.6496 7.67006 52.7796 7.33006C51.5632 6.72651 50.2989 6.22479 48.9996 5.83006L48.2496 8.55006C49.4963 8.90281 50.7216 9.32684 51.9196 9.82006L51.9096 9.83006ZM25.2596 10.9401C25.1996 10.7467 25.1396 10.5467 25.0796 10.3401C25.4396 10.1801 26.0796 9.93006 26.8996 9.65006L27.1896 10.7501L27.0096 10.8201C26.6233 10.9568 26.2789 11.1911 26.0096 11.5001C25.9016 11.3403 25.762 11.2042 25.5996 11.1001L25.3196 10.9301L25.2596 10.9401ZM27.5996 10.5901L27.3096 9.51006C28.9278 8.98263 30.5778 8.55845 32.2496 8.24006H32.3196L32.3996 9.01006C32.372 8.99518 32.341 8.98739 32.3096 8.98739C32.2782 8.98739 32.2473 8.99518 32.2196 9.01006C31.9756 9.23367 31.6854 9.40094 31.3696 9.50006C30.8422 9.54868 30.324 9.66982 29.8296 9.86006C29.5729 10.008 29.3345 10.186 29.1196 10.3901C29.0399 10.3804 28.9593 10.3804 28.8796 10.3901C28.899 10.2776 28.899 10.1626 28.8796 10.0501C28.8725 10.0178 28.8591 9.98729 28.8402 9.96026C28.8212 9.93322 28.7971 9.9102 28.7692 9.89254C28.7413 9.87488 28.7102 9.86291 28.6777 9.85733C28.6451 9.85176 28.6118 9.85269 28.5796 9.86006C28.3924 10.098 28.1616 10.2982 27.8996 10.4501H27.8296L27.5996 10.5901ZM29.6896 5.30006C31.0784 4.93898 32.4876 4.66181 33.9096 4.47006L34.2196 7.38006C32.874 7.55955 31.5388 7.80989 30.2196 8.13006L29.6896 5.30006ZM31.4896 1.30006C32.1396 1.17006 32.8296 1.05006 33.5496 0.95006L33.8696 4.00006C33.2096 4.09006 32.5796 4.19006 31.9696 4.31006L31.4896 1.23006V1.30006ZM29.6096 4.91006L29.0296 1.91006C29.6596 1.74006 30.3496 1.57006 31.0296 1.42006L31.5096 4.50006C30.8681 4.58136 30.2331 4.70835 29.6096 4.88006V4.91006ZM23.9096 7.00006C23.3196 5.56006 22.7296 4.38006 22.7296 4.38006C23.3357 4.0395 23.96 3.73237 24.5996 3.46006L25.5396 6.28006C24.9725 6.46215 24.4262 6.70348 23.9096 7.00006ZM24.9996 3.22006C25.5596 2.98006 26.2296 2.73006 26.9996 2.47006L27.7796 5.41006C27.0896 5.63006 26.4796 5.85006 25.9596 6.05006L24.9996 3.22006ZM24.9996 9.82006C24.8496 9.33006 24.6796 8.82006 24.4996 8.32006C24.3796 7.99006 24.2596 7.66006 24.1296 7.32006C25.3492 6.7132 26.6169 6.20815 27.9196 5.81006L28.6696 8.53006C27.4227 8.88967 26.1973 9.32037 24.9996 9.82006Z" fill="white"/>
</g>
<defs>
<clipPath id="clip0_9346_20730">
<rect width="78" height="72" fill="white"/>
</clipPath>
</defs>
</svg>
