<svg width="73" height="72" viewBox="0 0 73 72" fill="none" xmlns="http://www.w3.org/2000/svg">
<g clip-path="url(#clip0_9346_20747)">
<path fill-rule="evenodd" clip-rule="evenodd" d="M23.0119 46.1844L23.5545 46.0384V49.701C23.5545 51.6836 20.758 52.4975 20.7997 50.4418V46.7792L21.3736 46.6227V46.1844L17.4814 47.2279V47.6662L17.9823 47.5305V51.2871C18.1597 56.6505 26.1527 54.574 26.3301 49.0436V45.2871L26.8623 45.141V44.7027L22.9806 45.7462V46.1844H23.0119ZM21.6241 34.5079V34.0697L20.9562 34.247V32.4105L22.918 33.8401L24.8693 31.3566V33.1931L24.2014 33.3705V33.8192L28.3441 32.7027V32.2644L27.6762 32.4418V24.3131L22.918 30.3549L18.1493 26.8697V34.9984L17.4919 35.1757V35.614L21.6241 34.5079ZM33.3214 28.4349L34.5527 28.1114L33.9371 25.8888L33.3214 28.4349ZM35.0119 29.7601L32.8623 30.3444L32.6849 31.1062L33.1232 30.981V31.4297L28.7823 32.5879V32.1497L29.3771 31.9931L32.1319 24.0001L31.6101 24.1357V23.6975L35.5754 22.654L38.4867 29.541L39.0814 29.3844V29.8227L34.751 30.981V30.5427L35.1893 30.4279L35.0014 29.7601H35.0119ZM43.8501 20.4523C46.104 19.847 48.0867 21.0575 48.0867 23.3636C48.0108 24.5658 47.562 25.7145 46.8026 26.6497C46.0433 27.5848 45.0112 28.2599 43.8501 28.581L39.5301 29.7079V29.2697L40.2188 29.0818V21.9131L39.5301 22.101V21.6627L43.8501 20.4523ZM43.5997 22.8418L43.0258 22.9984V26.4523L43.5997 26.2957C44.0734 26.1564 44.4904 25.87 44.7906 25.4779C45.0907 25.0859 45.2583 24.6085 45.2693 24.1149C45.3023 23.7993 45.2122 23.4831 45.0178 23.2323C44.8234 22.9815 44.5397 22.8155 44.2258 22.7688C44.0143 22.7353 43.7978 22.7606 43.5997 22.8418ZM55.6414 19.6175V17.2905L48.358 19.2418V19.6801L49.1197 19.4818V26.7027L48.358 26.901V27.3392L55.6414 25.3879V23.0714L51.9267 24.0627V22.5601L53.8988 22.0279V21.5897L51.9267 22.1218V20.6088L55.6414 19.6175ZM17.4919 45.4749L21.6971 44.3375V43.8992L20.998 44.087V36.8662L21.6971 36.6784V36.2401L17.4919 37.3671V37.8157L18.191 37.6175V44.8384L17.4919 45.0262V45.4749ZM27.3841 35.1653L27.9162 35.0192V37.7949L22.8345 35.4679V43.5966L22.3023 43.7427V44.181L26.1841 43.1375V42.6992L25.6519 42.8453V40.007L30.7232 42.3862V34.2679L31.2658 34.1218V33.6836L27.3841 34.7166V35.1653ZM40.8032 46.1427L42.0345 45.8192L41.4188 43.5966L40.8032 46.1427ZM42.4936 47.4679L40.344 48.0523L40.1562 48.814L40.5945 48.6888V49.1271L36.264 50.2957V49.8575L36.8588 49.6905L39.6136 41.7392L39.0919 41.8749V41.4366L43.0571 40.3931L45.9788 47.2697L46.5736 47.1131V47.5514L42.2432 48.6888V48.2505L42.6814 48.1357L42.4936 47.4679ZM54.0032 45.5375V43.221L50.5806 44.1392V38.7966L51.3319 38.5984V38.1601L47.0119 39.3184V39.7566L47.7736 39.5479V46.7688L47.0119 46.9775V47.4157L54.0032 45.5375ZM31.2554 51.6418V51.1931L30.8484 51.3079V50.1392H31.1823C31.6496 50.9184 32.376 51.5085 33.2344 51.8061C34.0929 52.1037 35.0287 52.0899 35.878 51.767V49.2627C35.0745 49.4818 34.1562 49.3357 33.9058 48.7618C36.2641 46.8001 35.4606 42.501 32.038 43.367L27.5301 44.567V45.0053L28.0519 44.8697V52.0905L27.5197 52.2366V52.6749L31.2762 51.6314L31.2554 51.6418ZM30.8484 47.8227V45.9653L31.4849 45.7984C32.7267 45.5062 32.7475 47.2488 31.4849 47.6453L30.8275 47.8227H30.8484Z" fill="white"/>
<path fill-rule="evenodd" clip-rule="evenodd" d="M20.8938 21.6939L21.1338 21.8713V23.8539L18.3164 27.3808L18.4938 27.5269L21.3634 23.9374V22.0487L21.9268 22.4661V24.3443L18.5877 28.5182L18.7651 28.6539L21.8955 24.6991V30.96H22.1251V20.3791H24.0451L24.9842 22.7061V28.2365H25.2138V22.6539L24.2955 20.3895L24.6921 19.2104L27.1442 25.2417L27.3634 25.1478L24.8068 18.8869L25.026 18.24H25.4434L26.8103 21.6104L31.2555 22.3826L33.0921 23.8434L33.2381 23.6661L31.7042 22.4556L35.179 23.0504V22.8313L31.2973 22.1635L28.8242 20.1913L28.0416 18.24H30.4834L29.4399 17.4156H27.7912L27.3112 16.2261L30.2538 14.4313L30.5981 13.0017L26.9147 15.2556L26.4868 14.0765H26.2677L25.5894 16.08L25.026 16.4243L24.5355 15.2348H24.3164L23.8051 17.1652L20.4555 19.2L20.9042 20.2956V21.7043L20.8938 21.6939ZM27.8747 18.24H25.7147L27.0086 21.3704L30.9112 22.0382L28.699 20.2539L27.8747 18.1669V18.24ZM27.5303 17.4156H25.3703L27.1025 16.3721L27.5303 17.4156ZM26.706 15.3287L25.8399 15.8608L26.3303 14.4L26.706 15.3287ZM25.2138 16.9982L25.2764 16.8H25.1303L25.2242 17.0295L25.2138 16.9982ZM25.3494 16.5913L25.4225 16.3826L25.1616 16.5391H25.3494V16.5913ZM26.9981 15.4643L27.1651 15.8817H27.2903L27.4677 15.1408L26.9981 15.4643ZM26.9981 16.1321V16.08L26.3512 15.9234L26.1738 16.6539L27.019 16.1321H26.9981ZM26.8729 15.8191L26.779 15.5895L26.539 15.7356L26.8729 15.8191ZM25.7147 16.2365L25.5581 16.6852L25.8921 16.7582L26.0694 16.0278L25.7147 16.2365ZM25.4851 16.9043L25.4225 17.1026L25.6834 16.9461H25.4851V16.9043ZM24.7651 16.56L24.0242 17.0087L24.3999 15.6521L24.7651 16.56ZM25.0677 17.3217L24.9112 16.9148L24.786 17.4156H24.9112L25.0677 17.3217ZM23.9303 17.3217V17.4052H24.5668L24.7025 16.8626L23.9512 17.3217H23.9303ZM27.9164 14.88L28.6573 15.0574L28.8347 14.3269L27.9164 14.88ZM29.3042 14.0348L30.0451 14.2121L30.2225 13.4713L29.3042 14.0348ZM29.8364 14.4L29.0851 14.233L28.9077 14.9634L29.8364 14.4ZM28.4486 15.2452L27.7077 15.0678L27.5303 15.7982L28.4486 15.2452Z" fill="white"/>
<path d="M36.3995 71.5199C29.3454 71.5199 22.4497 69.4282 16.5845 65.5091C10.7192 61.5901 6.14781 56.0198 3.44833 49.5027C0.748852 42.9855 0.0425445 35.8143 1.41873 28.8957C2.79491 21.9772 6.19178 15.6221 11.1798 10.6341C16.1678 5.64612 22.5229 2.24926 29.4414 0.873074C36.3599 -0.50311 43.5312 0.203197 50.0483 2.90268C56.5654 5.60216 62.1357 10.1736 66.0548 16.0388C69.9738 21.9041 72.0656 28.7998 72.0656 35.8538C72.0518 45.3088 68.2897 54.3726 61.604 61.0583C54.9183 67.744 45.8545 71.5061 36.3995 71.5199ZM36.3995 1.23124C29.5518 1.23124 22.8579 3.26182 17.1642 7.0662C11.4706 10.8706 7.03289 16.2779 4.41238 22.6043C1.79188 28.9308 1.10624 35.8923 2.44216 42.6084C3.77808 49.3245 7.07556 55.4937 11.9176 60.3357C16.7597 65.1778 22.9288 68.4753 29.645 69.8112C36.3611 71.1471 43.3225 70.4615 49.649 67.841C55.9755 65.2205 61.3828 60.7828 65.1871 55.0891C68.9915 49.3955 71.0221 42.7016 71.0221 35.8538C71.0138 26.6739 67.3634 17.8723 60.8722 11.3811C54.381 4.88992 45.5794 1.23953 36.3995 1.23124Z" fill="white"/>
</g>
<defs>
<clipPath id="clip0_9346_20747">
<rect width="72" height="72" fill="white" transform="translate(0.399414)"/>
</clipPath>
</defs>
</svg>
