<svg width="61" height="80" viewBox="0 0 61 80" fill="none" xmlns="http://www.w3.org/2000/svg">
<g clip-path="url(#clip0_9346_20732)">
<path fill-rule="evenodd" clip-rule="evenodd" d="M42.8786 51.4729C43.0674 51.6361 43.2127 51.8436 43.3014 52.0769C43.3902 52.3102 43.4195 52.5619 43.3868 52.8093V58.7387C43.4178 58.9875 43.3876 59.24 43.2991 59.4745C43.2105 59.709 43.0662 59.9184 42.8786 60.0846H49.0433C50.248 60.0846 50.4456 61.3552 50.408 62.334L51.5092 62.0517V60.0846H53.7962C53.665 60.0004 53.5568 59.885 53.4812 59.7487C53.4056 59.6123 53.3651 59.4593 53.3633 59.3034C53.3657 59.0967 53.4072 58.8924 53.4856 58.7011L53.9186 57.4776H56.4974L56.9303 58.6823C56.9868 58.8502 57.0247 59.0238 57.0433 59.1999C57.0493 59.3847 57.0007 59.5671 56.9036 59.7245C56.8065 59.8818 56.6652 60.0071 56.4974 60.0846H60.4221C59.9143 59.7161 59.554 59.179 59.4056 58.5693L56.8551 51.4729H53.7304C54.0974 51.727 54.2104 51.9529 54.2104 52.1787C54.2126 52.4042 54.1711 52.6279 54.088 52.8376L52.2621 58.1176C52.1684 58.3251 52.0198 58.5031 51.8324 58.6325C51.645 58.7618 51.4259 58.8376 51.1986 58.8517H50.3327V52.8093C50.3028 52.5612 50.3344 52.3095 50.4247 52.0765C50.515 51.8434 50.6611 51.6361 50.8503 51.4729H47.4809C47.6684 51.6371 47.8128 51.8448 47.9014 52.0778C47.99 52.3108 48.0202 52.562 47.9892 52.8093V58.8517H45.7774V52.8093C45.7476 52.5612 45.7791 52.3095 45.8694 52.0765C45.9597 51.8434 46.1058 51.6361 46.2951 51.4729H42.8786ZM38.9162 77.9858H38.1256V77.3364H38.9633V77.1199H37.8621V79.1529H39.0103V78.9364H38.1256V78.2023H38.9162V77.9858ZM35.8762 77.1199V79.1529H36.1586L36.7986 78.1176C36.9303 77.8917 37.0621 77.6658 37.1751 77.4305C37.1562 77.7063 37.1562 77.983 37.1751 78.2587V79.1246H37.4198V77.1199H37.1656L36.5068 78.1646C36.3636 78.3819 36.2347 78.6082 36.1209 78.8423V77.1764L35.8762 77.1199ZM33.9092 77.1199V79.1529H34.1727V78.2117H35.1139V79.1529H35.4245V77.1199H35.1609V77.967H34.2198V77.1199H33.9092ZM33.4762 77.9858H32.6856V77.3364H33.5421V77.1199H32.4221V79.1529H33.5421V78.9364H32.6668V78.2023H33.4574V77.9858H33.4762ZM30.7656 77.1199V77.6376C30.7768 77.9261 30.7451 78.2148 30.6715 78.494C30.6233 78.6488 30.557 78.7973 30.4739 78.9364H30.3233V79.6329H30.5303V79.1434H31.848V79.6329H32.0456V78.9364H31.8668V77.1199H30.7656ZM31.0104 77.3364H31.6598V78.9364H30.7186C30.7855 78.8138 30.8391 78.6844 30.8786 78.5505C30.9552 78.2813 30.9901 78.002 30.9821 77.7223V77.3364H31.0104ZM27.8386 77.1199L28.5633 78.0611C28.2433 78.0611 28.1115 78.3058 28.008 78.5882C27.952 78.7828 27.8861 78.9744 27.8104 79.1623H28.0739C28.1387 79.0053 28.1952 78.8451 28.2433 78.6823C28.3374 78.4093 28.4409 78.2305 28.7703 78.2305H28.8362V79.1717H29.0998V78.2305H29.1845C29.5139 78.2305 29.608 78.4093 29.7021 78.6823C29.7502 78.8451 29.8067 79.0053 29.8715 79.1623H30.1445C30.0598 78.974 30.0127 78.7764 29.9374 78.5882C29.8621 78.3999 29.7115 78.0987 29.3915 78.0611L30.1162 77.1199H29.7774L29.1468 78.0611H29.1186V77.1199H28.8362V78.0611H28.7609L28.1304 77.1199H27.8386ZM27.5751 77.9858H26.7845V77.3364H27.6221V77.1199H26.5209V79.1529H27.6598V78.9364H26.7845V78.2023H27.5751V77.9858ZM24.9115 79.1529H25.1751V78.334H25.3821C25.4966 78.3448 25.612 78.3311 25.7207 78.2937C25.8295 78.2564 25.929 78.1964 26.0127 78.1176C26.0677 78.0583 26.1102 77.9886 26.1377 77.9126C26.1652 77.8367 26.1771 77.7559 26.1727 77.6752C26.1777 77.6001 26.1659 77.5249 26.1382 77.4549C26.1105 77.3849 26.0677 77.3219 26.0127 77.2705C25.8525 77.145 25.6508 77.0846 25.448 77.1011C25.2787 77.0917 25.109 77.0917 24.9398 77.1011V79.1529H24.9115ZM25.1751 77.3364C25.2564 77.327 25.3385 77.327 25.4198 77.3364C25.7115 77.3364 25.8998 77.4681 25.8998 77.7411C25.8998 78.014 25.7115 78.174 25.3915 78.174H25.1751V77.3364ZM23.0951 77.1199V77.807C23.0764 77.9505 23.1154 78.0956 23.2037 78.2103C23.2919 78.325 23.4221 78.4 23.5656 78.4187C23.6059 78.428 23.6477 78.428 23.688 78.4187C23.8589 78.4206 24.0274 78.3784 24.1774 78.2964V79.1623H24.4409V77.1199H24.1774V78.0611C24.0578 78.1339 23.922 78.176 23.7821 78.1834C23.6786 78.194 23.5752 78.1634 23.4941 78.0982C23.4131 78.033 23.361 77.9385 23.3492 77.8352C23.3397 77.8045 23.3397 77.7718 23.3492 77.7411V77.0917L23.0951 77.1199ZM21.3068 77.1199L21.9845 78.494C21.9975 78.5118 22.0045 78.5332 22.0045 78.5552C22.0045 78.5772 21.9975 78.5986 21.9845 78.6164C21.9186 78.767 21.7962 78.9646 21.5892 78.9646H21.4951V79.1811C21.5416 79.1905 21.5896 79.1905 21.6362 79.1811C21.7283 79.1811 21.8189 79.1577 21.8995 79.1133C21.9801 79.0689 22.0482 79.0048 22.0974 78.927C22.2593 78.6878 22.3891 78.4283 22.4833 78.1552L22.9068 77.1105H22.6339L22.3139 77.9764C22.2574 78.1176 22.2198 78.2305 22.1821 78.334C22.1351 78.2211 22.088 78.0987 22.0315 77.9764L21.6268 77.1105L21.3068 77.1199ZM34.7468 74.8987H33.9468V74.2493H34.7845V74.0329H33.6833V76.0658H34.8315V75.8493H33.9468V75.1152H34.7468V74.8987ZM32.4315 73.9576C32.1819 73.9576 31.9425 74.0567 31.766 74.2332C31.5895 74.4097 31.4903 74.6491 31.4903 74.8987V74.9834C31.4665 75.2288 31.5399 75.4738 31.6948 75.6657C31.8497 75.8575 32.0737 75.9809 32.3186 76.0093H32.4127C32.6623 76.0093 32.9017 75.9102 33.0782 75.7337C33.2547 75.5572 33.3539 75.3178 33.3539 75.0682V74.9552C33.3779 74.7113 33.3057 74.4676 33.1528 74.276C32.9999 74.0844 32.7783 73.96 32.5351 73.9293L32.4315 73.9576ZM32.4315 74.174C32.8645 74.174 33.0809 74.5976 33.0809 75.0023C33.0809 75.407 32.8456 75.8493 32.4221 75.8493C31.9986 75.8493 31.7727 75.454 31.7727 75.0211C31.7727 74.5882 31.9892 74.174 32.4315 74.174ZM29.608 73.9952V76.0282H29.8715V75.087H30.8127V76.0282H31.0762V74.0329H30.8127V74.8799H29.8715V74.0329L29.608 73.9952ZM27.9704 73.9952V76.0282H28.3845C28.6475 76.0477 28.9077 75.9632 29.1092 75.7929C29.1642 75.7336 29.2067 75.6639 29.2341 75.5879C29.2616 75.5119 29.2735 75.4312 29.2692 75.3505C29.2692 74.9081 28.9021 74.7199 28.488 74.7199H28.2339V73.9576L27.9704 73.9952ZM28.2339 74.9364H28.4503C28.7421 74.9364 28.9962 75.0587 28.9962 75.3787C28.9962 75.6987 28.7421 75.8305 28.4503 75.8305C28.3785 75.8399 28.3057 75.8399 28.2339 75.8305V74.9364ZM26.3515 73.9952V74.8517C26.3898 75.1571 26.3305 75.4667 26.1821 75.7364C26.124 75.7948 26.0476 75.8314 25.9656 75.8399V76.0564C26.0767 76.0507 26.184 76.0149 26.2762 75.9529C26.568 75.7646 26.5868 75.2752 26.5868 74.8329V74.2117H27.2551V76.0282H27.528V74.0329L26.3515 73.9952ZM25.3162 75.3881L25.5327 76.0282H25.8151L25.0715 74.0329H24.7892L24.1304 76.0658H24.4033L24.6103 75.4258L25.3162 75.3881ZM24.648 75.1811L24.8456 74.5976C24.8645 74.4713 24.8992 74.348 24.9492 74.2305C24.9492 74.3529 25.0151 74.4752 25.0527 74.5976L25.2504 75.1811H24.648ZM22.3327 73.9952V76.0282H22.5962V74.2493H23.5374V76.0658H23.8009V74.0329L22.3327 73.9952ZM20.3468 73.9952V76.0282H20.6198L21.3068 75.0211C21.447 74.8004 21.5727 74.5709 21.6833 74.334V76.0282H21.928V74.0329H21.6645L21.0056 75.0776C20.8655 75.295 20.7397 75.5214 20.6292 75.7552V74.0423L20.3468 73.9952ZM18.3703 73.9952V76.0282H19.7727V76.5176H19.9798V75.8211H19.8009V74.0329H19.528V75.8493H18.5868V74.0329L18.3703 73.9952ZM16.3845 73.9952V76.0282H16.6668L17.3068 75.0211C17.4451 74.7993 17.5707 74.5699 17.6833 74.334V76.0282H17.9374V74.0329H17.6739L17.0151 75.0776C16.8749 75.295 16.7492 75.5214 16.6386 75.7552V74.0423L16.3845 73.9952ZM14.4174 73.9952V76.0282H14.7186V75.087H15.6598V76.0282H15.9327V74.0329H15.6598V74.8799H14.7186V74.0329L14.4174 73.9952ZM12.6198 73.9952L13.2974 75.3693C13.3066 75.3884 13.3114 75.4093 13.3114 75.4305C13.3114 75.4517 13.3066 75.4726 13.2974 75.4917C13.2315 75.6423 13.1092 75.8399 12.8927 75.8399H12.8362V76.0564H12.9868C13.0789 76.0564 13.1694 76.033 13.2501 75.9886C13.3307 75.9442 13.3988 75.8801 13.448 75.8023C13.607 75.5628 13.7336 75.3032 13.8245 75.0305L14.2574 73.9858H13.9751L13.6551 74.8517C13.6551 74.9929 13.5704 75.1152 13.5327 75.2093L13.3915 74.8517L12.9868 73.9858L12.6198 73.9952ZM12.1962 76.0282H12.4504L12.3186 73.9952H11.9892L11.6221 74.9364C11.5374 75.1999 11.4621 75.4258 11.4056 75.6234C11.351 75.3913 11.285 75.1621 11.208 74.9364L10.8598 73.9952H10.5209L10.3798 76.0282H10.6339L10.6809 75.1529V74.2117C10.7374 74.447 10.8221 74.7105 10.9162 75.0023L11.2456 75.9434H11.4433L11.8104 75.0023C11.9139 74.7199 11.9986 74.4658 12.0645 74.2305V75.1058L12.1962 76.0282ZM49.7304 74.8987H48.9398V74.2493H49.7774V74.0329H48.6762V76.0658H49.8151V75.8493H48.9398V75.1152H49.7304V74.8987ZM47.4151 73.9576C47.1654 73.9576 46.926 74.0567 46.7495 74.2332C46.573 74.4097 46.4739 74.6491 46.4739 74.8987V74.9834C46.45 75.2288 46.5235 75.4738 46.6783 75.6657C46.8332 75.8575 47.0572 75.9809 47.3021 76.0093H47.3868C47.6364 76.0093 47.8758 75.9102 48.0523 75.7337C48.2288 75.5572 48.328 75.3178 48.328 75.0682V74.9552C48.3522 74.7127 48.2813 74.4702 48.1303 74.2789C47.9794 74.0876 47.7601 73.9623 47.5186 73.9293L47.4151 73.9576ZM47.4151 74.174C47.848 74.174 48.0645 74.5976 48.0645 75.0023C48.0645 75.407 47.8292 75.8493 47.4151 75.8493C47.0009 75.8493 46.7656 75.454 46.7656 75.0211C46.7656 74.5882 46.9821 74.174 47.4151 74.174ZM44.5915 73.9952V76.0282H44.8362V75.087H45.8715V76.0282H46.1351V74.0329H45.8715V74.8799H44.8833V74.0329L44.5915 73.9952ZM42.6245 73.9952V76.0282H42.9539V75.087H43.8951V76.0282H44.1586V74.0329H43.8951V74.8799H42.9539V74.0329L42.6245 73.9952ZM42.1915 74.8611H41.4009V74.2117H42.2386V73.9952H41.1656V76.0282H42.3139V75.8117H41.4292V75.0776H42.2198V74.8611H42.1915ZM41.4009 73.854C41.4207 73.8528 41.4401 73.8477 41.4579 73.839C41.4757 73.8303 41.4916 73.8182 41.5048 73.8034C41.5179 73.7885 41.5279 73.7712 41.5343 73.7524C41.5407 73.7337 41.5434 73.7138 41.5421 73.694C41.5477 73.6748 41.5492 73.6547 41.5464 73.6349C41.5436 73.6151 41.5366 73.5961 41.5259 73.5792C41.5153 73.5623 41.5011 73.5478 41.4844 73.5368C41.4677 73.5258 41.4489 73.5184 41.4292 73.5152C41.4106 73.5096 41.3911 73.5078 41.3719 73.51C41.3526 73.5122 41.334 73.5184 41.3172 73.5281C41.3005 73.5378 41.2859 73.5508 41.2744 73.5664C41.2628 73.582 41.2547 73.5998 41.2503 73.6187C41.2409 73.643 41.2409 73.6698 41.2503 73.694C41.2491 73.7138 41.2517 73.7337 41.2581 73.7524C41.2645 73.7712 41.2746 73.7885 41.2877 73.8034C41.3008 73.8182 41.3167 73.8303 41.3346 73.839C41.3524 73.8477 41.3717 73.8528 41.3915 73.854H41.4009ZM41.9562 73.854C41.9962 73.854 42.0345 73.8382 42.0627 73.8099C42.091 73.7817 42.1068 73.7434 42.1068 73.7034C42.1049 73.6657 42.0896 73.6299 42.0638 73.6023C42.0379 73.5748 42.0032 73.5573 41.9656 73.5529C41.9257 73.5529 41.8874 73.5687 41.8592 73.597C41.8309 73.6252 41.8151 73.6635 41.8151 73.7034C41.8138 73.7232 41.8164 73.7431 41.8228 73.7618C41.8292 73.7806 41.8393 73.7979 41.8524 73.8128C41.8655 73.8276 41.8815 73.8398 41.8993 73.8485C41.9171 73.8572 41.9364 73.8623 41.9562 73.8634V73.854ZM39.6692 74.3529C39.7978 74.2758 39.943 74.2306 40.0927 74.2211C40.3186 74.2211 40.4598 74.334 40.4598 74.5411C40.4456 74.6545 40.3872 74.7577 40.2973 74.8282C40.2074 74.8988 40.0933 74.9309 39.9798 74.9176H39.8668V75.1152H39.9798C40.2433 75.1152 40.5351 75.1999 40.5351 75.5105C40.5351 75.8211 40.3751 75.8964 40.0645 75.8964C39.906 75.8943 39.7506 75.8522 39.6127 75.774L39.5468 75.9811C39.709 76.0676 39.89 76.1129 40.0739 76.1129C40.4503 76.1129 40.808 75.9434 40.808 75.5199C40.8105 75.4556 40.8003 75.3915 40.778 75.3311C40.7557 75.2708 40.7218 75.2154 40.6781 75.1682C40.6344 75.121 40.5818 75.0829 40.5233 75.056C40.4649 75.0292 40.4017 75.0141 40.3374 75.0117C40.4529 74.9881 40.5569 74.9258 40.6322 74.8351C40.7075 74.7444 40.7496 74.6307 40.7515 74.5129C40.7515 74.2023 40.5068 74.014 40.1586 74.014C39.9682 74.0151 39.782 74.0706 39.6221 74.174L39.688 74.3623L39.6692 74.3529ZM38.8503 75.4352L39.0668 76.0752H39.3492L38.6527 74.0423H38.3327L37.6456 76.0752H37.9186L38.1256 75.4352H38.8503ZM38.1821 75.2282L38.3798 74.6446C38.3986 74.5184 38.4334 74.395 38.4833 74.2776C38.4833 74.3999 38.5492 74.5223 38.5868 74.6446L38.7845 75.2282H38.1821ZM36.1492 74.0423V76.0752H36.3656V75.134H36.4504C36.5845 75.1272 36.7166 75.1691 36.8222 75.2522C36.9277 75.3353 36.9996 75.4538 37.0245 75.5858C37.0716 75.7502 37.1314 75.9107 37.2033 76.0658H37.4856C37.3997 75.8799 37.3273 75.688 37.2692 75.4917C37.2406 75.3548 37.1699 75.2303 37.0669 75.1358C36.9639 75.0412 36.8339 74.9814 36.6951 74.9646L37.4668 74.0234H37.1468L36.4504 74.9646H36.3656V74.0234L36.1492 74.0423ZM40.0268 62.5787C39.9978 62.3293 40.0298 62.0765 40.12 61.8421C40.2101 61.6077 40.3558 61.3986 40.5445 61.2329H33.7398C34.4833 61.6187 34.5398 62.4658 34.5398 63.8023C34.5398 65.3176 34.4174 68.2823 33.1374 68.2823C32.967 68.2792 32.7984 68.2473 32.6386 68.1881L30.1445 61.2329H27.0198C27.3868 61.487 27.4998 61.7129 27.4998 61.9482C27.502 62.1706 27.4604 62.3912 27.3774 62.5976L25.4009 68.3293C25.2199 68.9056 24.8961 69.4269 24.4598 69.8446H27.0762C26.9463 69.7613 26.8389 69.6474 26.7634 69.5128C26.6879 69.3782 26.6467 69.2271 26.6433 69.0729C26.6508 68.8667 26.6921 68.6632 26.7656 68.4705L27.1986 67.2376H29.7774L30.2103 68.4423C30.2668 68.6102 30.3047 68.7837 30.3233 68.9599C30.3293 69.1447 30.2807 69.3271 30.1836 69.4845C30.0865 69.6418 29.9452 69.7671 29.7774 69.8446H34.2668C35.8198 68.9034 36.008 65.6564 36.008 63.5387V62.4564H37.6833V68.4987C37.7157 68.747 37.6853 68.9995 37.5949 69.233C37.5044 69.4665 37.3568 69.6735 37.1656 69.8352H43.1327C43.0045 69.7508 42.899 69.6364 42.8251 69.5019C42.7513 69.3674 42.7115 69.2169 42.7092 69.0634C42.7116 68.8567 42.7531 68.6524 42.8315 68.4611L43.2645 67.2282H45.8433L46.2762 68.4329C46.3327 68.6007 46.3706 68.7743 46.3892 68.9505C46.3883 69.1339 46.3369 69.3135 46.2406 69.4696C46.1443 69.6257 46.0068 69.7522 45.8433 69.8352H49.768C49.2626 69.4685 48.9026 68.9352 48.7515 68.3293L46.2009 61.2234H43.0762C43.4433 61.487 43.5562 61.7034 43.5562 61.9387C43.5541 62.1607 43.5126 62.3806 43.4339 62.5882L41.448 68.3293C41.263 68.9011 40.9397 69.4183 40.5068 69.8352C40.3219 69.669 40.1792 69.461 40.0908 69.2285C40.0024 68.9961 39.9708 68.7459 39.9986 68.4987V62.5693L40.0268 62.5787ZM10.3704 72.5646H49.768V72.1317H10.3704V72.5646ZM43.6409 65.9764L44.5821 63.3693L45.4668 65.9764H43.6409ZM27.5845 65.9764L28.5256 63.3693L29.4104 65.9764H27.5845ZM18.6809 61.1764C18.8677 61.3436 19.0121 61.5529 19.1021 61.7869C19.1921 62.0209 19.2252 62.273 19.1986 62.5223V68.4517C19.2244 68.6995 19.191 68.95 19.101 69.1824C19.011 69.4147 18.867 69.6224 18.6809 69.7882H22.0504C21.8643 69.6224 21.7203 69.4147 21.6303 69.1824C21.5403 68.95 21.5069 68.6995 21.5327 68.4517V62.5129H21.6551C22.2574 62.5129 22.9162 62.9364 22.9162 64.1505C22.9412 64.5732 22.833 64.9931 22.6067 65.3511C22.3805 65.7091 22.0476 65.987 21.6551 66.1458C23.5374 66.3434 25.3162 65.4587 25.3162 63.567C25.3101 63.2518 25.242 62.9409 25.1157 62.652C24.9894 62.3632 24.8074 62.1021 24.5801 61.8836C24.3529 61.6651 24.0848 61.4935 23.7913 61.3786C23.4977 61.2637 23.1844 61.2078 22.8692 61.214H18.6809V61.1764ZM10.3704 61.1764C10.8112 61.5612 11.1643 62.0362 11.4056 62.5693L13.5515 66.7105C13.7147 67.1485 14.0195 67.5195 14.4174 67.7646L14.3327 67.9246C14.2187 68.1768 14.0307 68.3884 13.7937 68.5312C13.5567 68.6741 13.2819 68.7416 13.0056 68.7246C12.8424 68.7339 12.6793 68.7037 12.5302 68.6366C12.3811 68.5694 12.2504 68.4672 12.1492 68.3387L11.4715 69.647C11.8861 69.965 12.3988 70.1282 12.9209 70.1082C13.5418 70.1129 14.1494 69.928 14.6623 69.5782C15.1753 69.2283 15.5692 68.7303 15.7915 68.1505L18.6151 61.2423H16.1492C16.2982 61.3356 16.4218 61.4644 16.5088 61.6171C16.5959 61.7699 16.6437 61.9418 16.648 62.1176C16.641 62.3207 16.5997 62.5212 16.5256 62.7105L15.4339 65.534L13.3445 61.1764H10.3704ZM33.6456 51.4729C33.8349 51.6361 33.981 51.8434 34.0713 52.0765C34.1616 52.3095 34.1931 52.5612 34.1633 52.8093V58.7387C34.1923 58.9882 34.1603 59.241 34.0702 59.4754C33.98 59.7098 33.8343 59.9189 33.6456 60.0846H36.1774L39.0856 54.494V58.7387C39.1146 58.9882 39.0827 59.241 38.9925 59.4754C38.9023 59.7098 38.7567 59.9189 38.568 60.0846H41.9374C41.7506 59.9174 41.6062 59.7081 41.5162 59.4741C41.4262 59.2401 41.3932 58.9881 41.4198 58.7387V52.8093C41.3939 52.5615 41.4274 52.311 41.5174 52.0787C41.6074 51.8463 41.7514 51.6386 41.9374 51.4729H39.3774L36.4974 57.054V52.8093C36.4716 52.5615 36.505 52.311 36.595 52.0787C36.685 51.8463 36.829 51.6386 37.0151 51.4729H33.6456ZM32.168 52.8093C32.1422 52.5615 32.1756 52.311 32.2656 52.0787C32.3556 51.8463 32.4996 51.6386 32.6856 51.4729H25.8809C26.6339 51.8493 26.6809 52.6964 26.6809 54.0423C26.6809 55.5576 26.5586 58.5223 25.2786 58.5223C25.0748 58.5048 24.8765 58.4472 24.6951 58.3529L24.8551 60.2352C25.0567 60.3107 25.2703 60.349 25.4856 60.3482C27.9045 60.3482 28.1586 56.2729 28.1586 53.7599V52.7058H29.8339V58.7481C29.8629 58.9976 29.8309 59.2504 29.7407 59.4848C29.6506 59.7192 29.5049 59.9283 29.3162 60.094H32.6856C32.4988 59.9268 32.3545 59.7176 32.2645 59.4835C32.1745 59.2495 32.1414 58.9975 32.168 58.7481V52.8187V52.8093ZM15.2268 55.8587C15.208 56.4286 15.3016 56.9966 15.5024 57.5302C15.7032 58.0639 16.0073 58.5527 16.3971 58.9688C16.787 59.3848 17.255 59.72 17.7744 59.955C18.2939 60.1901 18.8546 60.3205 19.4245 60.3387C19.578 60.3482 19.7321 60.3482 19.8856 60.3387C20.4765 60.381 21.0699 60.3064 21.6319 60.1193C22.1939 59.9321 22.7135 59.636 23.161 59.2479C23.6086 58.8599 23.9752 58.3874 24.2401 57.8575C24.5049 57.3277 24.6627 56.7508 24.7045 56.1599C24.7139 56.022 24.7139 55.8837 24.7045 55.7458C24.7503 54.5939 24.3369 53.471 23.555 52.6238C22.7732 51.7767 21.6869 51.2746 20.5351 51.2282H20.0362C18.8305 51.1665 17.6492 51.584 16.75 52.3897C15.8508 53.1955 15.3067 54.324 15.2362 55.5293V55.8587H15.2268ZM17.6833 55.5293C17.6833 53.374 18.8598 52.5834 19.9609 52.5834C21.5233 52.5834 22.2762 54.3811 22.2762 56.1787C22.2762 58.3905 21.0056 59.0023 20.1209 59.0023C18.9445 59.0023 17.6833 57.9576 17.6833 55.5481V55.5293ZM15.4339 51.4258C15.3343 51.462 15.2293 51.4811 15.1233 51.4823H9.33506C9.24496 51.4762 9.15621 51.4572 9.07153 51.4258L8.59153 53.4493C8.77679 53.2598 8.99999 53.1115 9.24651 53.0142C9.49304 52.9169 9.75734 52.8727 10.0221 52.8846H10.8409V58.7481C10.8699 58.9976 10.838 59.2504 10.7478 59.4848C10.6576 59.7192 10.512 59.9283 10.3233 60.094H13.6927C13.5051 59.9278 13.3607 59.7184 13.2722 59.4839C13.1836 59.2494 13.1535 58.9969 13.1845 58.7481V52.8752H14.0033C14.3609 52.8752 14.8786 52.8752 15.048 53.3552L15.4339 51.4258ZM7.79153 51.4823C7.09755 51.3176 6.38711 51.2323 5.67388 51.2282C5.0942 51.1898 4.51265 51.266 3.96243 51.4524C3.41221 51.6389 2.9041 51.9318 2.46711 52.3146C2.03012 52.6974 1.67282 53.1626 1.4156 53.6835C1.15838 54.2044 1.00628 54.7708 0.967997 55.3505C0.958584 55.4758 0.958584 55.6017 0.967997 55.727C0.967997 58.174 2.568 60.2917 5.768 60.2917C6.67551 60.3095 7.5785 60.1595 8.43153 59.8493L9.07153 58.1364C8.22416 58.6049 7.2879 58.8902 6.32329 58.974C5.288 58.974 3.49976 58.5599 3.49976 55.4446C3.49976 55.0587 3.49976 52.6211 5.89976 52.6211C6.63256 52.6401 7.34327 52.876 7.94212 53.2987L7.81976 51.5199L7.79153 51.4823ZM54.2951 56.254L55.1892 53.647L56.1303 56.2446L54.2951 56.254Z" fill="white"/>
<path d="M2.15332 47.8777H58.2851V49.0071H2.15332V47.8777Z" fill="white"/>
<path fill-rule="evenodd" clip-rule="evenodd" d="M12.5634 45.4775H47.8669L49.3069 48.1599H11.1328L12.5634 45.4775Z" fill="white"/>
<path d="M18.7656 37.9482H19.8292V46.4659H18.7656V37.9482Z" fill="white"/>
<path d="M14.6339 43.5389H45.7774L46.3515 42.7201H14.0597L14.6339 43.5389ZM46.0692 44.5554H14.0692L12.0645 41.7319H48.328L46.3233 44.5554H46.0692ZM22.248 39.7084L20.5256 40.3672H20.1586C18.9931 39.9431 17.9174 39.3047 16.9868 38.4848C16.6249 38.1877 16.3291 37.8182 16.1184 37.4C15.9077 36.9818 15.7868 36.5242 15.7633 36.0566C15.7633 34.3342 17.448 32.8189 20.168 31.7648C23.381 30.6225 26.7725 30.0646 30.1821 30.1178C33.5925 30.0527 36.9871 30.5977 40.2056 31.7272C42.9162 32.7813 44.6009 34.2966 44.6009 36.0189C44.5774 36.4866 44.4565 36.9442 44.2458 37.3624C44.0351 37.7805 43.7393 38.15 43.3774 38.4472C42.4468 39.267 41.3711 39.9055 40.2056 40.3295H39.8386L38.1162 39.6707V38.7295C39.0375 38.5103 39.9176 38.1449 40.7233 37.6472C41.1845 37.3084 41.448 36.9695 41.448 36.6495C41.448 35.906 40.2715 35.1719 38.3703 34.5884C35.7157 33.8625 32.9715 33.5171 30.2197 33.5625C27.4711 33.5171 24.73 33.8625 22.0786 34.5884C20.1962 35.1719 19.0009 35.906 19.0009 36.6495C19.0009 36.9695 19.255 37.3084 19.7162 37.6472C20.4978 38.1435 21.352 38.515 22.248 38.7483V39.6895V39.7084ZM20.3656 39.3601L20.6197 39.2566C20.0897 39.0465 19.5847 38.7782 19.1139 38.4566C18.7883 38.271 18.5133 38.0084 18.3131 37.6916C18.1129 37.3749 17.9936 37.0138 17.9656 36.6401C17.9656 35.3978 19.415 34.3342 21.7303 33.6095C24.4881 32.8489 27.3406 32.4876 30.2009 32.5366C33.0612 32.4876 35.9138 32.8489 38.6715 33.6095C41.015 34.3342 42.4362 35.3978 42.4362 36.6401C42.4083 37.0138 42.289 37.3749 42.0887 37.6916C41.8885 38.0084 41.6135 38.271 41.288 38.4566C40.8172 38.7782 40.3121 39.0465 39.7821 39.2566L40.0362 39.3601C41.0146 38.9971 41.9199 38.4616 42.7092 37.7789C42.9744 37.5767 43.1949 37.3218 43.3568 37.0303C43.5188 36.7387 43.6187 36.4168 43.6503 36.0848C43.6503 34.8236 42.2198 33.6378 39.8856 32.7342C36.7829 31.6546 33.5138 31.132 30.2292 31.1907C26.9445 31.132 23.6754 31.6546 20.5727 32.7342C18.2574 33.6754 16.808 34.8236 16.808 36.0848C16.8379 36.4173 16.9371 36.7398 17.0992 37.0315C17.2613 37.3233 17.4827 37.5779 17.7492 37.7789C18.5233 38.4534 19.4086 38.9884 20.3656 39.3601Z" fill="white"/>
<path d="M20.6006 46.0235C23.4241 43.4917 25.6547 37.8917 27.1888 30.2399C28.9705 20.4065 29.8119 10.4258 29.7018 0.432861H30.7182C30.83 10.4918 29.9854 20.5385 28.1959 30.4376C26.6053 38.3058 24.2806 44.1035 21.3065 46.7764L20.6288 46.0235H20.6006ZM40.5912 37.9482H41.6547V46.4658H40.5912V37.9482Z" fill="white"/>
<path d="M39.1888 46.7764C36.1864 44.1035 33.8617 38.3058 32.2711 30.4376C30.4662 20.54 29.6058 10.4932 29.7017 0.432861H30.7182C30.6065 10.425 31.4416 20.4053 33.2123 30.2399C34.7559 37.8917 36.977 43.4917 39.8006 46.0235L39.1229 46.7764H39.1888ZM24.8076 33.4493H25.8711V46.4658H24.8076V33.4493Z" fill="white"/>
<path d="M34.5674 33.4495H35.6309V46.4659H34.5674V33.4495Z" fill="white"/>
<path d="M17.0805 36.96L18.7746 36.6965L18.9252 37.6941L17.2311 37.9577L17.0805 36.96ZM36.1299 31.313L35.6123 33.4683L34.6711 33.2424L35.1417 31.0588L36.0829 31.2847L36.1299 31.313ZM40.2899 32.7718L39.2546 34.5694L38.3794 34.0706L39.4146 32.2635L40.2899 32.7718ZM43.4146 34.8235L41.5323 35.9624L41.0052 35.1059L42.8876 33.9577L43.4146 34.8235ZM43.2076 37.9671L41.5135 37.7035L41.6641 36.7059L43.3582 36.9694L43.2076 37.9671ZM25.297 31.0588L25.8052 33.2141L24.8641 33.44L24.3464 31.2847L25.297 31.0588ZM21.0241 32.2353L22.0594 34.0424L21.1841 34.5412L20.1488 32.7435L21.0241 32.2353ZM17.5417 33.9482L19.4241 35.0965L18.897 35.953L17.0146 34.8141L17.5417 33.9482Z" fill="white"/>
<path fill-rule="evenodd" clip-rule="evenodd" d="M29.0713 22.4658H30.0501V44.2541H29.0713V22.4658ZM30.3889 22.4658H31.3678V44.4517H30.3889V22.4658Z" fill="white"/>
<path d="M26.5675 33.4495H27.631V46.4659H26.5675V33.4495ZM32.8075 33.4495H33.871V46.4659H32.8075V33.4495ZM44.5439 42.2683L44.0639 44.3295L43.0757 44.0942L43.5651 42.033L44.5439 42.2683ZM16.8828 42.033L17.3628 44.0942L16.3745 44.3295L15.8945 42.2683L16.8828 42.033Z" fill="white"/>
</g>
<defs>
<clipPath id="clip0_9346_20732">
<rect width="60.2353" height="80" fill="white" transform="translate(0.600586)"/>
</clipPath>
</defs>
</svg>
