<svg id="Layer_1" data-name="Layer 1" xmlns="http://www.w3.org/2000/svg" viewBox="0 0 574.03 574.03"><defs><style>.cls-1{fill:#00b4ff;}.cls-2{fill:#00b400;fill-rule:evenodd;}.cls-3{fill:#fff;}.cls-4{fill:none;}</style></defs><circle cx="287.01" cy="287.01" r="287.01"/><polygon class="cls-1" points="40.15 414.57 318.89 135.83 237.76 54.7 40.15 252.31 40.15 414.57"/><path class="cls-2" d="M541.59,285.91C431.63,285.91,342.5,375,342.5,485a198.39,198.39,0,0,0,16.86,80.3,284.57,284.57,0,0,0,77.5-31.85A115.41,115.41,0,0,1,541.59,369.62a116.57,116.57,0,0,1,20.44,1.8,297.52,297.52,0,0,0,12-82.88A200.37,200.37,0,0,0,541.59,285.91Z"/><path class="cls-3" d="M349,379.29c0-8.79-6.84-11.23-15.15-11.23H321.78v22.47h12.09C342.18,390.53,349,387.59,349,379.29Zm77.2,7.27h44.44V421c-6.25,11.65-20.4,20.72-41.63,20.72-12.49,0-22.48-3.33-27.88-7.48-20.06,12.18-55.06,9.65-67.45-24.13H321.78v10H330v20h-45.8v-20h11.4v-52h-16.4v34.53c0,25.78-18.32,39.93-42.05,39.93-20.81,0-42-12.48-42-39.93V368.06h-8.74V347.68H233v20.38H223v35.78c0,10.39,7.92,16.22,15.4,16.22s14.57-5.41,14.57-16.22V368.06H240.86V347.68h98.25c24.63,0,37.05,13.43,37.05,30.52a31.58,31.58,0,0,1-16.81,27.38c4.72,13.84,19.07,16.56,26,9.91-3.33-6.66-4.59-14.15-4.59-21.64,0-24.68,15.35-47.83,47-47.83,18.31,0,29.34,5.21,38.14,12.55v21.58H442.59l-.1-9.63c-3.59-2.22-7.78-3.25-13.05-3.25-13.8,0-22.07,9.81-22.07,26.17,0,15,8.75,26.13,22.07,26.54,7.08,0,12.53-1.51,17.9-6.15v-7.71H426.21V386.56ZM163,411.32a9.33,9.33,0,0,0-9.58-9.15H140.94v17.89H153C159.26,420.06,163,415.48,163,411.32Zm-22.07-27.46H148c5.83,0,8.75-3.74,8.75-7.9s-2.92-7.9-8.75-7.9h-7.08Zm48.29,28.71c0,13.72-10,27.45-29.52,27.45h-55.4v-20h9.57v-52h-9.57V347.68h48.9c18.86,0,28.11,12.06,28.11,25,0,5.82-2.08,11.64-7.08,17.05C185.07,394.68,189.23,403.42,189.23,412.57ZM423.62,259.49h11.21v33.23l-37.09-52.79H358.16v19.55H369v52H358.16v20.38H406V311.48H395.24v-32l36.26,52.36h29.56V259.49h10V239.94H423.62v19.55ZM382.94,131.36v30.17h19.6V151.48h11.12v51.87h-9.53v20.11h46.61V203.35H440.68V151.48H451.8v10.05h20.13V131.36Zm-196,170H166.29v10.59H140.86V295.51H164.7V275.4H140.86V260.05h25.43v10.59H187V239.93H104.31v20.12h10.06v51.87H104.31V332H187ZM232.47,282h12.41C253.19,282,260,279,260,270.72c0-8.8-6.84-11.24-15.15-11.24H232.47Zm7.91,49.92H194.59V311.49h10.83v-52H194.59V239.93h56.32c24.64,0,37.06,13.44,37.06,30.53a31.6,31.6,0,0,1-16.66,27.3c1.66,10,10.34,13.73,21.09,13.73h17.2v-52H295V239.93h55.37v19.56H335.82v52h14.57v20.38H291.25c-26.81,0-39.52-10.4-45.75-30h-13v9.57h7.91v20.39Zm92.7-155.52H349.5L341,154.12Zm-92.94,47.11H194.59V203.35h11.12V151.48H194.59V131.36H241.2v20.12h-9v15.88h9.54c12.18,0,19.6-5.83,19.6-15.88h-7.95V131.36h44v20.12H286.23c0,13.76-9.54,25.4-19.07,30.7C269.8,196.47,278,203.35,296,202.3l20.13-50.82h-6.89V131.36h51.91l27.55,72h9.53v20.11H351.61V203.35H359l-2.12-6.88H326.18l-2.12,6.88h8.47v20.11h-18.3c-31.78,0-35.94,0-47.6-4.76-11.12-4.76-19.6-16.41-23.84-31.23H232.2v15.88h7.94Zm-53.19,0H104.31V203.35h10.06V151.48H104.31V131.36H187v30.71H166.29V151.48H140.86v15.35H164.7v20.11H140.86v16.41h25.43V192.77H187Z"/><circle class="cls-4" cx="287.01" cy="287.01" r="287.01"/></svg>