<svg xmlns="http://www.w3.org/2000/svg" viewBox="0 0 600 600"><defs><style>.a{fill:#fff;}</style></defs><path class="a" d="M300,0h0C465.6854,0,600,134.3146,600,300h0c0,165.6854-134.3146,300-300,300h0C134.3146,600,0,465.6854,0,300H0C0,134.3146,134.3146,0,300,0Z"/><path d="M120,195.498v209l-15.4,2.8c-2,.4-4.2.8-6.2,1a7.7955,7.7955,0,0,1-4-.5,7.3528,7.3528,0,0,1-3-2.5,7.4888,7.4888,0,0,1-1.2-3.9c-.2-1.9-.2-4.2-.2-6.7v-189.8c0-2,0-4.4.2-6.3a7.4825,7.4825,0,0,1,1.2-3.9,7.347,7.347,0,0,1,3-2.5,5.6152,5.6152,0,0,1,2.8-.5h1.2c1.9995.2,4.2.6,6.7,1.1Z"/><path d="M171.1,155.2985l28.9,7.3v274.8l-29.4,7.4a88.4417,88.4417,0,0,1-8.7,2,10.2454,10.2454,0,0,1-5.7-.4,9.98,9.98,0,0,1-4.3-3.3,11.4413,11.4413,0,0,1-1.7-5.4c-.2-2.4-.2-5.2-.2-8.3v-258.8c0-2.8,0-5.7995.2-8.2995a10.3955,10.3955,0,0,1,1.8-5.4,9.16,9.16,0,0,1,4.2-3.3,7.4566,7.4566,0,0,1,3.1-.6,24.8947,24.8947,0,0,1,2.5.2C164.5,153.598,167.6,154.3982,171.1,155.2985Z"/><path d="M310,136.9983v326l-52.5,17.7c-4.2,1.4-8.5,2.9-11.7,3.6-3.2.8-5.5.8-7.5.1a12.8646,12.8646,0,0,1-5.7-4.1c-1.2-1.7-1.9-3.8-2.3-7.1-.3-3.1-.3-7.3-.3-12.3v-321.9c0-4.6,0-9,.3-12.2.4-3.3,1.1-5.5,2.4-7.1a12.0593,12.0593,0,0,1,5.6-4.1,10.7441,10.7441,0,0,1,3.2-.5,19.1213,19.1213,0,0,1,4.3.6c3.1.7,7.1,2.1,12.3,3.8Z"/><path d="M500,166.8982v266.2c0,3.5,0,7.8-1.1,10.6a14.6188,14.6188,0,0,1-2.5,4.2c-2,2.3-5.7,4.2-9,5.9l-110.9,57.4c-5.8,2.9-11.2,5.7-15.2,7.3-4.2,1.6-7.3,2.1-9.8,1.4a14.0371,14.0371,0,0,1-7.8-4.7c-1.8-2-2.8-4.8-3.2-9.4-.5-4.4-.5-10.5-.5-17.7v-376.9c0-6.5,0-12.6.5-16.9995.4-4.6,1.4-7.4,3.2-9.4a14.1249,14.1249,0,0,1,7.7-4.7,10.07,10.07,0,0,1,2.5-.3,22.4945,22.4945,0,0,1,7.4,1.7c4,1.6,9.4,4.4,15.9,7.7l110.2,57c3.3,1.7,7,3.6,9,5.9a15.5429,15.5429,0,0,1,2.5,4.1C500,159.0985,500,163.3984,500,166.8982Z"/></svg>