<svg fill="none" height="120" viewBox="0 0 120 120" width="120" xmlns="http://www.w3.org/2000/svg"><rect fill="#000" height="120" rx="60" width="120"/><path d="m39.2417 74.8941 20.7584 20.7584 20.7584-20.7584c5.8124-5.8123 8.6147-13.5967 8.6147-21.1735 0-16.3992-13.7005-29.3732-29.3731-29.3732s-29.3731 12.974-29.3731 29.3732c0 7.5768 2.8023 15.3612 8.6147 21.1735zm20.7584-42.5547c11.8323 0 21.3811 10.1716 21.3811 21.3812 0 5.5009-2.1796 11.1057-6.3313 15.3612l-15.0498 15.1536-15.0498-15.1536c-4.1517-4.2555-6.3314-9.8603-6.3314-15.3612 0-11.2096 9.5489-21.3812 21.3812-21.3812zm-7.992 21.1736c0 4.463 3.5289 7.992 7.992 7.992s8.0958-3.529 8.0958-7.992c0-4.4631-3.6327-8.0958-8.0958-8.0958s-7.992 3.6327-7.992 8.0958z" fill="#fff"/></svg>