<svg width="84" height="74" viewBox="0 0 84 74" fill="none" xmlns="http://www.w3.org/2000/svg">
<rect x="14" y="8" width="60" height="60" rx="30" fill="black"/>
<circle cx="70.4954" cy="52.4954" r="6.6387" transform="rotate(-70.1941 70.4954 52.4954)" fill="#FFC800"/>
<path d="M35.9052 32.6959H29V31.0151H29.8408V26.6808H29V25H35.9052V27.5655H34.1791V26.6808H32.0545V27.9636H34.0464V29.6444H32.0545V31.0156H34.1791V30.131H35.9052V32.6959ZM40.3505 32.6959H36.5438V31.0151H37.4731V26.6808H36.5438V25H40.4391V26.6808H39.6869V28.0075H40.4836C41.5016 28.0075 42.1212 27.5209 42.1212 26.6808H41.457V25H45.1311V26.6808H44.2012C44.2012 27.831 43.4044 28.8037 42.6076 29.2463C42.8288 30.4405 43.5119 31.0156 45.0169 30.9271L46.6991 26.6814H46.1235V25H50.4612L52.7629 31.0151H53.5597V32.6959H49.6644V31.0151H50.284L50.1068 30.44H47.5393L47.3621 31.0151H48.0703V32.6959H46.5414C43.8853 32.6959 43.5376 32.6959 42.5636 32.2978C41.6342 31.8997 40.926 30.9266 40.5717 29.6884H39.6863V31.0151H40.3505V32.6959ZM48.116 28.7591H49.4883L48.7802 26.9013L48.116 28.7591ZM40.3705 41.7541H36.5438V40.0511H37.4486V35.7062H36.5438V34.0722H41.2503C43.3086 34.0722 44.3466 35.1951 44.3466 36.6226C44.3466 37.4566 43.8942 38.3825 42.9548 38.9042C43.0935 39.7382 43.8184 40.0516 44.7166 40.0516H46.1541V35.7062H44.9361V34.0722H49.563V35.7062H48.345V40.0511H49.563V41.7541H44.6207C42.3803 41.7541 41.3189 40.8851 40.7979 39.251H39.7091V40.0505H40.37L40.3705 41.7541ZM39.7091 37.583H40.7461C41.4403 37.583 42.012 37.338 42.012 36.6443C42.012 35.9094 41.4403 35.7057 40.7461 35.7057H39.7091V37.583ZM35.9052 39.2031H34.1791V40.0878H32.0545V38.7165H34.0464V37.0357H32.0545V35.753H34.1791V36.6376H35.9052V34.0722H29V35.753H29.8408V40.0872H29V41.7681H35.9052V39.2031ZM52.2826 25V27.5209H53.9202V26.6808H54.8496V31.0151H54.0528V32.6959H57.9481V31.0151H57.1073V26.6808H58.0367V27.5209H59.7189V25H52.2826ZM55.6815 35.7062H56.6181V38.4827L53.519 34.0722H50.2116V35.7057H51.1187V40.0505H50.2116V41.7536H54.2122V40.0505H53.3106V37.3781L56.3401 41.7536H58.8101V35.7062H59.6481V34.0727H55.682L55.6815 35.7062ZM36.0963 48.4974C36.0963 49.6443 35.2583 50.7918 33.6297 50.7918H29V49.1232H29.8001V44.7784H29V43.0753H33.0859C34.6621 43.0753 35.4355 44.083 35.4355 45.1609C35.4355 45.6475 35.2617 46.134 34.8438 46.5861C35.7487 47.0031 36.0963 47.733 36.0963 48.4974ZM32.0612 46.099H32.6529C33.1399 46.099 33.3834 45.7861 33.3834 45.4387C33.3834 45.0913 33.1399 44.7784 32.6529 44.7784H32.0612V46.099ZM33.9049 48.3933C33.9049 48.0108 33.5918 47.6284 33.1048 47.6284H32.0612V49.1232H33.0703C33.5918 49.1232 33.9049 48.7407 33.9049 48.3933ZM55.8993 46.3239H59.6124V49.1995C59.0903 50.1727 57.908 50.931 56.1339 50.931C55.0903 50.931 54.2556 50.6526 53.8038 50.3057C52.1277 51.324 49.2031 51.1125 48.1678 48.2892H47.1721V49.1232H47.8552V50.7918H44.0285V49.1232H44.9807V44.7784H43.6106V47.6634C43.6106 49.818 42.08 51 40.0969 51C38.358 51 36.5839 49.9578 36.5839 47.6634V44.7784H35.8534V43.0753H39.7498V44.7784H38.9146V47.7681C38.9146 48.6366 39.576 49.1232 40.2017 49.1232C40.828 49.1232 41.4191 48.6717 41.4191 47.7681V44.7784H40.4101V43.0753H48.6197C50.6779 43.0753 51.716 44.1977 51.716 45.6257C51.716 46.4636 51.2596 47.394 50.3113 47.914C50.7058 49.0698 51.9049 49.2975 52.481 48.7413C52.203 48.1851 52.0982 47.5593 52.0982 46.9335C52.0982 44.8713 53.3808 42.9367 56.0286 42.9367C57.5581 42.9367 58.4802 43.372 59.2152 43.9856V45.7883H57.2672L57.2589 44.9844C56.9585 44.7984 56.6081 44.7127 56.1679 44.7127C55.0151 44.7127 54.3236 45.5322 54.3236 46.8996C54.3236 48.1506 55.0546 49.0826 56.1679 49.1171C56.7596 49.1171 57.2149 48.9907 57.6634 48.6027V47.9585H55.8982L55.8993 46.3239ZM49.4482 45.717C49.4482 44.9821 48.8765 44.7784 48.1823 44.7784H47.1716V46.6557H48.1823C48.8765 46.6557 49.4482 46.4102 49.4482 45.717Z" fill="white"/>
<rect x="59.9941" y="70.5928" width="10.6219" height="10.6219" transform="rotate(-160.194 59.9941 70.5928)" fill="#00B400"/>
<path d="M83.7051 36.7464L74.5708 32.4568L69.6274 37.862L64.3756 35.1662L62.6521 38.346L70.4328 42.3406L75.3747 36.9357L81.8915 40.2801L83.7051 36.7464Z" fill="#00B4FA"/>
<circle cx="18.9445" cy="41.6987" r="7" transform="rotate(64.8059 18.9445 41.6987)" fill="#00B400"/>
<path d="M25.5931 22.9424C23.122 22.0524 20.4999 21.6579 17.8763 21.7814C15.2528 21.9048 12.6793 22.5438 10.3027 23.6619C7.92609 24.7799 5.79299 26.3551 4.02516 28.2975C2.25734 30.2399 0.889411 32.5115 -0.000515461 34.9826L7.5271 37.6936C8.06101 36.211 8.88171 34.8482 9.94232 33.6828C11.0029 32.5175 12.2827 31.5724 13.7085 30.9016C15.1344 30.2309 16.6784 29.8475 18.2524 29.7734C19.8264 29.6994 21.3996 29.936 22.8821 30.47L25.5931 22.9424Z" fill="#FFC800"/>
<circle cx="31.4725" cy="61.4728" r="5.05808" transform="rotate(-160.194 31.4725 61.4728)" fill="#FFC800"/>
<rect x="23.0645" y="63.7424" width="8.09294" height="8.09294" transform="rotate(-175.194 23.0645 63.7424)" fill="#00B4FF"/>
<circle cx="70.4812" cy="20.4809" r="5.62232" transform="rotate(-115.194 70.4812 20.4809)" fill="#00B4FF"/>
<circle cx="40.3843" cy="69.384" r="4.04647" transform="rotate(-115.194 40.3843 69.384)" fill="#00B4FF"/>
<rect x="48.8594" y="9.46533" width="8.76217" height="8.76217" transform="rotate(-175.194 48.8594 9.46533)" fill="#FFC800"/>
<circle cx="31.1927" cy="13.1921" r="6.15686" transform="rotate(154.806 31.1927 13.1921)" fill="#00B4FF"/>
<rect x="59.2734" y="21.6143" width="9.85744" height="9.85744" transform="rotate(-160.194 59.2734 21.6143)" fill="#00B400"/>
</svg>
